<svg xmlns="http://www.w3.org/2000/svg" xmlns:xlink="http://www.w3.org/1999/xlink" width="500" zoomAndPan="magnify" viewBox="0 0 375 374.999991" height="500" preserveAspectRatio="xMidYMid meet" version="1.0"><defs><g/><clipPath id="aa0ecd0003"><path d="M 277 155 L 303 155 L 303 181 L 277 181 Z M 277 155 " clip-rule="nonzero"/></clipPath><clipPath id="7895f94d3f"><path d="M 272.339844 158.921875 L 289.960938 142.628906 L 314.398438 169.066406 L 296.773438 185.359375 Z M 272.339844 158.921875 " clip-rule="nonzero"/></clipPath><clipPath id="ece57d46de"><path d="M 272.339844 158.921875 L 289.960938 142.628906 L 314.398438 169.066406 L 296.773438 185.359375 Z M 272.339844 158.921875 " clip-rule="nonzero"/></clipPath><clipPath id="fc37158870"><path d="M 290 143 L 316 143 L 316 169 L 290 169 Z M 290 143 " clip-rule="nonzero"/></clipPath><clipPath id="04b69d258d"><path d="M 285.0625 147.160156 L 302.6875 130.871094 L 327.121094 157.308594 L 309.496094 173.597656 Z M 285.0625 147.160156 " clip-rule="nonzero"/></clipPath><clipPath id="02654f94dc"><path d="M 285.0625 147.160156 L 302.6875 130.871094 L 327.121094 157.308594 L 309.496094 173.597656 Z M 285.0625 147.160156 " clip-rule="nonzero"/></clipPath></defs><g fill="#000000" fill-opacity="1"><g transform="translate(59.146172, 216.392446)"><g><path d="M 4.28125 0 L 4.28125 -7.796875 L 22.859375 -7.796875 C 23.765625 -7.796875 24.585938 -8.023438 25.328125 -8.484375 C 26.078125 -8.941406 26.675781 -9.550781 27.125 -10.3125 C 27.582031 -11.070312 27.8125 -11.910156 27.8125 -12.828125 C 27.8125 -13.773438 27.582031 -14.628906 27.125 -15.390625 C 26.675781 -16.148438 26.078125 -16.757812 25.328125 -17.21875 C 24.585938 -17.675781 23.765625 -17.90625 22.859375 -17.90625 L 15.609375 -17.90625 C 13.171875 -17.90625 10.960938 -18.398438 8.984375 -19.390625 C 7.003906 -20.378906 5.425781 -21.8125 4.25 -23.6875 C 3.070312 -25.570312 2.484375 -27.832031 2.484375 -30.46875 C 2.484375 -33.070312 3.039062 -35.332031 4.15625 -37.25 C 5.269531 -39.175781 6.773438 -40.675781 8.671875 -41.75 C 10.566406 -42.820312 12.671875 -43.359375 14.984375 -43.359375 L 33.8125 -43.359375 L 33.8125 -35.546875 L 15.859375 -35.546875 C 15.035156 -35.546875 14.269531 -35.328125 13.5625 -34.890625 C 12.863281 -34.460938 12.316406 -33.894531 11.921875 -33.1875 C 11.523438 -32.488281 11.328125 -31.707031 11.328125 -30.84375 C 11.328125 -29.976562 11.523438 -29.191406 11.921875 -28.484375 C 12.316406 -27.785156 12.863281 -27.226562 13.5625 -26.8125 C 14.269531 -26.40625 15.035156 -26.203125 15.859375 -26.203125 L 23.34375 -26.203125 C 26.03125 -26.203125 28.363281 -25.6875 30.34375 -24.65625 C 32.332031 -23.625 33.875 -22.175781 34.96875 -20.3125 C 36.0625 -18.457031 36.609375 -16.289062 36.609375 -13.8125 C 36.609375 -10.882812 36.039062 -8.382812 34.90625 -6.3125 C 33.769531 -4.25 32.238281 -2.679688 30.3125 -1.609375 C 28.394531 -0.535156 26.28125 0 23.96875 0 Z M 4.28125 0 "/></g></g></g><g fill="#000000" fill-opacity="1"><g transform="translate(97.916624, 216.392446)"><g><path d="M 19.203125 0 C 15.941406 0 13.03125 -0.703125 10.46875 -2.109375 C 7.90625 -3.515625 5.878906 -5.398438 4.390625 -7.765625 C 2.910156 -10.140625 2.171875 -12.816406 2.171875 -15.796875 C 2.171875 -18.765625 2.910156 -21.4375 4.390625 -23.8125 C 5.878906 -26.1875 7.90625 -28.078125 10.46875 -29.484375 C 13.03125 -30.890625 15.941406 -31.59375 19.203125 -31.59375 L 23.171875 -31.59375 L 23.171875 -24.34375 L 19.203125 -24.34375 C 17.460938 -24.34375 15.960938 -23.96875 14.703125 -23.21875 C 13.453125 -22.476562 12.484375 -21.457031 11.796875 -20.15625 C 11.117188 -18.851562 10.78125 -17.398438 10.78125 -15.796875 C 10.78125 -14.179688 11.117188 -12.722656 11.796875 -11.421875 C 12.484375 -10.117188 13.453125 -9.097656 14.703125 -8.359375 C 15.960938 -7.617188 17.460938 -7.25 19.203125 -7.25 L 23.171875 -7.25 L 23.171875 0 Z M 19.203125 0 "/></g></g></g><g fill="#000000" fill-opacity="1"><g transform="translate(122.937813, 216.392446)"><g><path d="M 16.46875 0.75 C 13.582031 0.75 11.066406 0.00390625 8.921875 -1.484375 C 6.773438 -2.972656 5.113281 -4.960938 3.9375 -7.453125 C 2.757812 -9.953125 2.171875 -12.710938 2.171875 -15.734375 C 2.171875 -18.828125 2.835938 -21.632812 4.171875 -24.15625 C 5.515625 -26.675781 7.445312 -28.664062 9.96875 -30.125 C 12.488281 -31.59375 15.503906 -32.328125 19.015625 -32.328125 C 22.566406 -32.328125 25.5625 -31.582031 28 -30.09375 C 30.4375 -28.613281 32.289062 -26.613281 33.5625 -24.09375 C 34.84375 -21.570312 35.484375 -18.785156 35.484375 -15.734375 L 35.484375 0 L 27 0 L 27 -5.265625 L 26.875 -5.265625 C 26.257812 -4.148438 25.488281 -3.132812 24.5625 -2.21875 C 23.632812 -1.3125 22.507812 -0.585938 21.1875 -0.046875 C 19.863281 0.484375 18.289062 0.75 16.46875 0.75 Z M 18.890625 -6.5 C 20.546875 -6.5 21.96875 -6.910156 23.15625 -7.734375 C 24.351562 -8.566406 25.269531 -9.691406 25.90625 -11.109375 C 26.550781 -12.535156 26.875 -14.117188 26.875 -15.859375 C 26.875 -17.585938 26.550781 -19.144531 25.90625 -20.53125 C 25.269531 -21.914062 24.351562 -23.019531 23.15625 -23.84375 C 21.96875 -24.664062 20.546875 -25.078125 18.890625 -25.078125 C 17.191406 -25.078125 15.734375 -24.664062 14.515625 -23.84375 C 13.304688 -23.019531 12.378906 -21.914062 11.734375 -20.53125 C 11.097656 -19.144531 10.78125 -17.585938 10.78125 -15.859375 C 10.78125 -14.117188 11.097656 -12.535156 11.734375 -11.109375 C 12.378906 -9.691406 13.304688 -8.566406 14.515625 -7.734375 C 15.734375 -6.910156 17.191406 -6.5 18.890625 -6.5 Z M 18.890625 -6.5 "/></g></g></g><g fill="#000000" fill-opacity="1"><g transform="translate(162.451467, 216.392446)"><g><path d="M 4.03125 0 L 4.03125 -45.21875 L 12.515625 -45.21875 L 12.515625 0 Z M 4.03125 0 "/></g></g></g><g fill="#000000" fill-opacity="1"><g transform="translate(178.987743, 216.392446)"><g><path d="M 19.9375 0 C 16.351562 0 13.226562 -0.691406 10.5625 -2.078125 C 7.894531 -3.460938 5.828125 -5.347656 4.359375 -7.734375 C 2.898438 -10.128906 2.171875 -12.816406 2.171875 -15.796875 C 2.171875 -19.140625 2.847656 -22.050781 4.203125 -24.53125 C 5.566406 -27.007812 7.425781 -28.925781 9.78125 -30.28125 C 12.132812 -31.644531 14.800781 -32.328125 17.78125 -32.328125 C 21.332031 -32.328125 24.210938 -31.582031 26.421875 -30.09375 C 28.628906 -28.613281 30.25 -26.625 31.28125 -24.125 C 32.3125 -21.625 32.828125 -18.847656 32.828125 -15.796875 C 32.828125 -15.378906 32.804688 -14.890625 32.765625 -14.328125 C 32.722656 -13.773438 32.660156 -13.351562 32.578125 -13.0625 L 11.203125 -13.0625 C 11.535156 -11.789062 12.101562 -10.71875 12.90625 -9.84375 C 13.71875 -8.976562 14.734375 -8.328125 15.953125 -7.890625 C 17.171875 -7.460938 18.539062 -7.25 20.0625 -7.25 L 28.859375 -7.25 L 28.859375 0 Z M 11.15625 -18.765625 L 24.34375 -18.765625 C 24.257812 -19.546875 24.113281 -20.273438 23.90625 -20.953125 C 23.695312 -21.640625 23.40625 -22.25 23.03125 -22.78125 C 22.664062 -23.320312 22.234375 -23.78125 21.734375 -24.15625 C 21.242188 -24.53125 20.664062 -24.816406 20 -25.015625 C 19.34375 -25.222656 18.625 -25.328125 17.84375 -25.328125 C 16.8125 -25.328125 15.890625 -25.140625 15.078125 -24.765625 C 14.273438 -24.398438 13.601562 -23.90625 13.0625 -23.28125 C 12.53125 -22.664062 12.109375 -21.960938 11.796875 -21.171875 C 11.484375 -20.390625 11.269531 -19.585938 11.15625 -18.765625 Z M 11.15625 -18.765625 "/></g></g></g><g fill="#000000" fill-opacity="1"><g transform="translate(213.794443, 216.392446)"><g><path d="M 15.421875 0 C 13.023438 0 10.847656 -0.578125 8.890625 -1.734375 C 6.929688 -2.890625 5.375 -4.445312 4.21875 -6.40625 C 3.0625 -8.375 2.484375 -10.550781 2.484375 -12.9375 C 2.484375 -14.675781 2.851562 -16.304688 3.59375 -17.828125 C 4.332031 -19.359375 5.34375 -20.703125 6.625 -21.859375 C 5.34375 -23.015625 4.332031 -24.359375 3.59375 -25.890625 C 2.851562 -27.421875 2.484375 -29.03125 2.484375 -30.71875 C 2.484375 -33.070312 3.050781 -35.195312 4.1875 -37.09375 C 5.320312 -39 6.847656 -40.519531 8.765625 -41.65625 C 10.679688 -42.789062 12.796875 -43.359375 15.109375 -43.359375 L 32.953125 -43.359375 L 32.953125 -35.546875 L 16.109375 -35.546875 C 15.234375 -35.546875 14.4375 -35.328125 13.71875 -34.890625 C 13 -34.460938 12.421875 -33.882812 11.984375 -33.15625 C 11.546875 -32.4375 11.328125 -31.625 11.328125 -30.71875 C 11.328125 -29.851562 11.546875 -29.054688 11.984375 -28.328125 C 12.421875 -27.609375 13 -27.03125 13.71875 -26.59375 C 14.4375 -26.164062 15.234375 -25.953125 16.109375 -25.953125 L 30.84375 -25.953125 L 30.84375 -18.140625 L 16.46875 -18.140625 C 15.519531 -18.140625 14.65625 -17.898438 13.875 -17.421875 C 13.09375 -16.953125 12.472656 -16.328125 12.015625 -15.546875 C 11.554688 -14.765625 11.328125 -13.894531 11.328125 -12.9375 C 11.328125 -11.988281 11.554688 -11.125 12.015625 -10.34375 C 12.472656 -9.5625 13.09375 -8.941406 13.875 -8.484375 C 14.65625 -8.023438 15.519531 -7.796875 16.46875 -7.796875 L 32.953125 -7.796875 L 32.953125 0 Z M 15.421875 0 "/></g></g></g><g fill="#000000" fill-opacity="1"><g transform="translate(249.220485, 216.392446)"><g><path d="M 18.828125 0.75 C 16.179688 0.75 13.816406 0.328125 11.734375 -0.515625 C 9.648438 -1.367188 7.90625 -2.566406 6.5 -4.109375 C 5.09375 -5.660156 4.019531 -7.476562 3.28125 -9.5625 C 2.539062 -11.65625 2.171875 -13.9375 2.171875 -16.40625 C 2.171875 -19.550781 2.800781 -22.3125 4.0625 -24.6875 C 5.320312 -27.0625 7.097656 -28.925781 9.390625 -30.28125 C 11.679688 -31.644531 14.351562 -32.328125 17.40625 -32.328125 C 18.726562 -32.328125 20 -32.140625 21.21875 -31.765625 C 22.4375 -31.398438 23.539062 -30.863281 24.53125 -30.15625 C 25.519531 -29.457031 26.320312 -28.632812 26.9375 -27.6875 L 27 -27.6875 L 27 -45.21875 L 35.484375 -45.21875 L 35.484375 -16.40625 C 35.484375 -12.9375 34.800781 -9.910156 33.4375 -7.328125 C 32.082031 -4.753906 30.164062 -2.765625 27.6875 -1.359375 C 25.207031 0.046875 22.253906 0.75 18.828125 0.75 Z M 18.828125 -6.5 C 20.523438 -6.5 21.96875 -6.910156 23.15625 -7.734375 C 24.351562 -8.566406 25.269531 -9.679688 25.90625 -11.078125 C 26.550781 -12.484375 26.875 -14.054688 26.875 -15.796875 C 26.875 -17.523438 26.550781 -19.09375 25.90625 -20.5 C 25.269531 -21.90625 24.351562 -23.019531 23.15625 -23.84375 C 21.96875 -24.664062 20.523438 -25.078125 18.828125 -25.078125 C 17.171875 -25.078125 15.734375 -24.664062 14.515625 -23.84375 C 13.304688 -23.019531 12.378906 -21.90625 11.734375 -20.5 C 11.097656 -19.09375 10.78125 -17.523438 10.78125 -15.796875 C 10.78125 -14.054688 11.097656 -12.484375 11.734375 -11.078125 C 12.378906 -9.679688 13.304688 -8.566406 14.515625 -7.734375 C 15.734375 -6.910156 17.171875 -6.5 18.828125 -6.5 Z M 18.828125 -6.5 "/></g></g></g><path fill="#000000" d="M 61.667969 221.878906 L 72.917969 221.878906 L 72.917969 225.628906 L 61.667969 225.628906 M 76.667969 221.878906 L 87.917969 221.878906 L 87.917969 225.628906 L 76.667969 225.628906 M 91.667969 221.878906 L 102.917969 221.878906 L 102.917969 225.628906 L 91.667969 225.628906 M 106.667969 221.878906 L 117.917969 221.878906 L 117.917969 225.628906 L 106.667969 225.628906 M 121.667969 221.878906 L 132.917969 221.878906 L 132.917969 225.628906 L 121.667969 225.628906 M 136.667969 221.878906 L 147.917969 221.878906 L 147.917969 225.628906 L 136.667969 225.628906 M 151.667969 221.878906 L 162.917969 221.878906 L 162.917969 225.628906 L 151.667969 225.628906 M 166.667969 221.878906 L 177.917969 221.878906 L 177.917969 225.628906 L 166.667969 225.628906 M 181.667969 221.878906 L 192.917969 221.878906 L 192.917969 225.628906 L 181.667969 225.628906 M 196.667969 221.878906 L 207.917969 221.878906 L 207.917969 225.628906 L 196.667969 225.628906 " fill-opacity="1" fill-rule="nonzero"/><g fill="#000000" fill-opacity="1"><g transform="translate(60.342401, 240.311468)"><g><path d="M 7.03125 -9.3125 L 2.453125 -9.3125 L 2.453125 -5.734375 L 6.4375 -5.734375 L 6.4375 -4.65625 L 2.453125 -4.65625 L 2.453125 -1.078125 L 7.03125 -1.078125 L 7.03125 0 L 1.34375 0 L 1.34375 -10.375 L 7.03125 -10.375 Z M 7.03125 -9.3125 "/></g></g></g><g fill="#000000" fill-opacity="1"><g transform="translate(68.404145, 240.311468)"><g><path d="M 6.90625 -12.734375 L 7.984375 -12.734375 L 7.984375 0 L 6.90625 0 L 6.90625 -0.90625 C 6.582031 -0.582031 6.203125 -0.328125 5.765625 -0.140625 C 5.335938 0.046875 4.875 0.140625 4.375 0.140625 C 3.71875 0.140625 3.113281 -0.0195312 2.5625 -0.34375 C 2.019531 -0.664062 1.585938 -1.097656 1.265625 -1.640625 C 0.941406 -2.191406 0.78125 -2.796875 0.78125 -3.453125 C 0.78125 -4.128906 0.941406 -4.738281 1.265625 -5.28125 C 1.585938 -5.820312 2.019531 -6.253906 2.5625 -6.578125 C 3.113281 -6.898438 3.71875 -7.0625 4.375 -7.0625 C 4.875 -7.0625 5.335938 -6.96875 5.765625 -6.78125 C 6.203125 -6.59375 6.582031 -6.335938 6.90625 -6.015625 Z M 4.375 -0.9375 C 4.832031 -0.9375 5.253906 -1.046875 5.640625 -1.265625 C 6.023438 -1.492188 6.332031 -1.800781 6.5625 -2.1875 C 6.789062 -2.570312 6.90625 -2.992188 6.90625 -3.453125 C 6.90625 -3.929688 6.789062 -4.359375 6.5625 -4.734375 C 6.332031 -5.117188 6.023438 -5.421875 5.640625 -5.640625 C 5.253906 -5.867188 4.832031 -5.984375 4.375 -5.984375 C 3.914062 -5.984375 3.492188 -5.867188 3.109375 -5.640625 C 2.722656 -5.421875 2.414062 -5.117188 2.1875 -4.734375 C 1.96875 -4.359375 1.859375 -3.929688 1.859375 -3.453125 C 1.859375 -2.992188 1.96875 -2.570312 2.1875 -2.1875 C 2.414062 -1.800781 2.722656 -1.492188 3.109375 -1.265625 C 3.492188 -1.046875 3.914062 -0.9375 4.375 -0.9375 Z M 4.375 -0.9375 "/></g></g></g><g fill="#000000" fill-opacity="1"><g transform="translate(77.642285, 240.311468)"><g><path d="M 3.640625 0.140625 C 2.859375 0.140625 2.226562 -0.09375 1.75 -0.5625 C 1.269531 -1.039062 1.03125 -1.679688 1.03125 -2.484375 L 1.03125 -6.921875 L 2.09375 -6.921875 L 2.09375 -2.609375 C 2.09375 -2.085938 2.238281 -1.675781 2.53125 -1.375 C 2.820312 -1.082031 3.191406 -0.9375 3.640625 -0.9375 C 4.085938 -0.9375 4.453125 -1.082031 4.734375 -1.375 C 5.023438 -1.675781 5.171875 -2.085938 5.171875 -2.609375 L 5.171875 -6.921875 L 6.234375 -6.921875 L 6.234375 -2.484375 C 6.234375 -1.679688 5.992188 -1.039062 5.515625 -0.5625 C 5.035156 -0.09375 4.410156 0.140625 3.640625 0.140625 Z M 3.640625 0.140625 "/></g></g></g><g fill="#000000" fill-opacity="1"><g transform="translate(84.890938, 240.311468)"><g><path d="M 4.375 0.140625 C 3.71875 0.140625 3.113281 -0.0195312 2.5625 -0.34375 C 2.019531 -0.664062 1.585938 -1.097656 1.265625 -1.640625 C 0.941406 -2.191406 0.78125 -2.796875 0.78125 -3.453125 C 0.78125 -4.128906 0.941406 -4.738281 1.265625 -5.28125 C 1.585938 -5.820312 2.019531 -6.253906 2.5625 -6.578125 C 3.113281 -6.898438 3.71875 -7.0625 4.375 -7.0625 C 5.1875 -7.0625 5.898438 -6.828125 6.515625 -6.359375 C 7.140625 -5.890625 7.566406 -5.289062 7.796875 -4.5625 L 6.65625 -4.5625 C 6.445312 -4.988281 6.140625 -5.332031 5.734375 -5.59375 C 5.335938 -5.851562 4.882812 -5.984375 4.375 -5.984375 C 3.914062 -5.984375 3.492188 -5.867188 3.109375 -5.640625 C 2.722656 -5.421875 2.414062 -5.117188 2.1875 -4.734375 C 1.96875 -4.359375 1.859375 -3.929688 1.859375 -3.453125 C 1.859375 -2.984375 1.96875 -2.554688 2.1875 -2.171875 C 2.414062 -1.796875 2.722656 -1.492188 3.109375 -1.265625 C 3.492188 -1.046875 3.914062 -0.9375 4.375 -0.9375 C 4.882812 -0.9375 5.335938 -1.066406 5.734375 -1.328125 C 6.140625 -1.585938 6.445312 -1.929688 6.65625 -2.359375 L 7.796875 -2.359375 C 7.566406 -1.628906 7.140625 -1.03125 6.515625 -0.5625 C 5.898438 -0.09375 5.1875 0.140625 4.375 0.140625 Z M 4.375 0.140625 "/></g></g></g><g fill="#000000" fill-opacity="1"><g transform="translate(93.142986, 240.311468)"><g><path d="M 8.6875 -0.90625 L 9.125 -0.90625 L 9.125 0 C 8.96875 0.09375 8.789062 0.140625 8.59375 0.140625 C 8.195312 0.140625 7.863281 0.03125 7.59375 -0.1875 C 7.320312 -0.40625 7.128906 -0.695312 7.015625 -1.0625 C 6.691406 -0.695312 6.300781 -0.40625 5.84375 -0.1875 C 5.382812 0.03125 4.894531 0.140625 4.375 0.140625 C 3.71875 0.140625 3.113281 -0.0195312 2.5625 -0.34375 C 2.019531 -0.664062 1.585938 -1.097656 1.265625 -1.640625 C 0.941406 -2.191406 0.78125 -2.796875 0.78125 -3.453125 C 0.78125 -4.128906 0.941406 -4.738281 1.265625 -5.28125 C 1.585938 -5.820312 2.019531 -6.253906 2.5625 -6.578125 C 3.113281 -6.898438 3.71875 -7.0625 4.375 -7.0625 C 4.875 -7.0625 5.335938 -6.96875 5.765625 -6.78125 C 6.203125 -6.59375 6.582031 -6.335938 6.90625 -6.015625 L 6.90625 -6.921875 L 7.984375 -6.921875 L 7.984375 -1.796875 C 7.984375 -1.472656 8.050781 -1.242188 8.1875 -1.109375 C 8.332031 -0.972656 8.5 -0.90625 8.6875 -0.90625 Z M 4.375 -0.9375 C 4.832031 -0.9375 5.253906 -1.046875 5.640625 -1.265625 C 6.023438 -1.492188 6.332031 -1.800781 6.5625 -2.1875 C 6.789062 -2.570312 6.90625 -2.992188 6.90625 -3.453125 C 6.90625 -3.929688 6.789062 -4.359375 6.5625 -4.734375 C 6.332031 -5.117188 6.023438 -5.421875 5.640625 -5.640625 C 5.253906 -5.867188 4.832031 -5.984375 4.375 -5.984375 C 3.914062 -5.984375 3.492188 -5.867188 3.109375 -5.640625 C 2.722656 -5.421875 2.414062 -5.117188 2.1875 -4.734375 C 1.96875 -4.359375 1.859375 -3.929688 1.859375 -3.453125 C 1.859375 -2.992188 1.96875 -2.570312 2.1875 -2.1875 C 2.414062 -1.800781 2.722656 -1.492188 3.109375 -1.265625 C 3.492188 -1.046875 3.914062 -0.9375 4.375 -0.9375 Z M 4.375 -0.9375 "/></g></g></g><g fill="#000000" fill-opacity="1"><g transform="translate(102.467631, 240.311468)"><g><path d="M 4.453125 -5.890625 L 2.59375 -5.890625 L 2.59375 -1.953125 C 2.59375 -1.628906 2.695312 -1.375 2.90625 -1.1875 C 3.113281 -1 3.359375 -0.90625 3.640625 -0.90625 L 4.4375 -0.90625 L 4.4375 -0.09375 C 4.34375 -0.03125 4.207031 0.0195312 4.03125 0.0625 C 3.851562 0.113281 3.679688 0.140625 3.515625 0.140625 C 3.148438 0.140625 2.816406 0.0546875 2.515625 -0.109375 C 2.222656 -0.285156 1.984375 -0.523438 1.796875 -0.828125 C 1.609375 -1.128906 1.515625 -1.457031 1.515625 -1.8125 L 1.515625 -5.890625 L 0.359375 -5.890625 L 0.359375 -6.921875 L 1.515625 -6.921875 L 1.515625 -9.9375 L 2.59375 -9.9375 L 2.59375 -6.921875 L 4.453125 -6.921875 Z M 4.453125 -5.890625 "/></g></g></g><g fill="#000000" fill-opacity="1"><g transform="translate(107.484595, 240.311468)"><g><path d="M 1.9375 -8.21875 C 1.726562 -8.21875 1.546875 -8.289062 1.390625 -8.4375 C 1.242188 -8.582031 1.171875 -8.753906 1.171875 -8.953125 C 1.171875 -9.171875 1.242188 -9.347656 1.390625 -9.484375 C 1.546875 -9.617188 1.726562 -9.6875 1.9375 -9.6875 C 2.132812 -9.6875 2.304688 -9.617188 2.453125 -9.484375 C 2.609375 -9.347656 2.6875 -9.171875 2.6875 -8.953125 C 2.6875 -8.753906 2.609375 -8.582031 2.453125 -8.4375 C 2.304688 -8.289062 2.132812 -8.21875 1.9375 -8.21875 Z M 1.40625 0 L 1.40625 -6.921875 L 2.46875 -6.921875 L 2.46875 0 Z M 1.40625 0 "/></g></g></g><g fill="#000000" fill-opacity="1"><g transform="translate(111.342467, 240.311468)"><g><path d="M 4.375 0.140625 C 3.71875 0.140625 3.113281 -0.0195312 2.5625 -0.34375 C 2.019531 -0.664062 1.585938 -1.097656 1.265625 -1.640625 C 0.941406 -2.191406 0.78125 -2.796875 0.78125 -3.453125 C 0.78125 -4.128906 0.941406 -4.738281 1.265625 -5.28125 C 1.585938 -5.820312 2.019531 -6.253906 2.5625 -6.578125 C 3.113281 -6.898438 3.71875 -7.0625 4.375 -7.0625 C 5.039062 -7.0625 5.644531 -6.898438 6.1875 -6.578125 C 6.738281 -6.253906 7.175781 -5.820312 7.5 -5.28125 C 7.820312 -4.738281 7.984375 -4.128906 7.984375 -3.453125 C 7.984375 -2.796875 7.820312 -2.191406 7.5 -1.640625 C 7.175781 -1.097656 6.738281 -0.664062 6.1875 -0.34375 C 5.644531 -0.0195312 5.039062 0.140625 4.375 0.140625 Z M 4.375 -0.9375 C 4.832031 -0.9375 5.253906 -1.046875 5.640625 -1.265625 C 6.023438 -1.492188 6.332031 -1.800781 6.5625 -2.1875 C 6.789062 -2.570312 6.90625 -2.992188 6.90625 -3.453125 C 6.90625 -3.929688 6.789062 -4.359375 6.5625 -4.734375 C 6.332031 -5.117188 6.023438 -5.421875 5.640625 -5.640625 C 5.253906 -5.867188 4.832031 -5.984375 4.375 -5.984375 C 3.914062 -5.984375 3.492188 -5.867188 3.109375 -5.640625 C 2.722656 -5.421875 2.414062 -5.117188 2.1875 -4.734375 C 1.96875 -4.359375 1.859375 -3.929688 1.859375 -3.453125 C 1.859375 -2.992188 1.96875 -2.570312 2.1875 -2.1875 C 2.414062 -1.800781 2.722656 -1.492188 3.109375 -1.265625 C 3.492188 -1.046875 3.914062 -0.9375 4.375 -0.9375 Z M 4.375 -0.9375 "/></g></g></g><g fill="#000000" fill-opacity="1"><g transform="translate(120.096212, 240.311468)"><g><path d="M 4.015625 -7.0625 C 4.460938 -7.0625 4.878906 -6.941406 5.265625 -6.703125 C 5.648438 -6.460938 5.960938 -6.144531 6.203125 -5.75 C 6.453125 -5.351562 6.578125 -4.90625 6.578125 -4.40625 L 6.578125 0 L 5.5 0 L 5.5 -4.40625 C 5.5 -4.84375 5.34375 -5.210938 5.03125 -5.515625 C 4.726562 -5.828125 4.359375 -5.984375 3.921875 -5.984375 C 3.484375 -5.984375 3.109375 -5.828125 2.796875 -5.515625 C 2.492188 -5.210938 2.34375 -4.84375 2.34375 -4.40625 L 2.34375 0 L 1.265625 0 L 1.265625 -6.921875 L 2.34375 -6.921875 L 2.34375 -6.375 C 2.570312 -6.59375 2.828125 -6.757812 3.109375 -6.875 C 3.390625 -7 3.691406 -7.0625 4.015625 -7.0625 Z M 4.015625 -7.0625 "/></g></g></g><g clip-path="url(#aa0ecd0003)"><g clip-path="url(#7895f94d3f)"><g clip-path="url(#ece57d46de)"><path fill="#ff6c37" d="M 302.398438 155.984375 L 280.902344 155.027344 C 276.75 154.84375 276.046875 162.929688 280.96875 163.066406 L 294.34375 163.425781 L 293.320312 176.886719 C 293.011719 180.984375 301.003906 181.417969 301.230469 177.253906 Z M 302.398438 155.984375 " fill-opacity="1" fill-rule="nonzero"/></g></g></g><g clip-path="url(#fc37158870)"><g clip-path="url(#04b69d258d)"><g clip-path="url(#02654f94dc)"><path fill="#ff6c37" d="M 315.121094 144.222656 L 293.625 143.269531 C 289.472656 143.082031 288.773438 151.171875 293.691406 151.304688 L 307.066406 151.667969 L 306.046875 165.125 C 305.734375 169.222656 313.726562 169.65625 313.957031 165.492188 Z M 315.121094 144.222656 " fill-opacity="1" fill-rule="nonzero"/></g></g></g></svg>