<svg xmlns="http://www.w3.org/2000/svg" xmlns:xlink="http://www.w3.org/1999/xlink" width="800" zoomAndPan="magnify" viewBox="0 0 600 149.999998" height="200" preserveAspectRatio="xMidYMid meet" version="1.0"><defs><g/><clipPath id="4d3cb393ef"><path d="M 467.65625 16.59375 L 548 16.59375 L 548 132.332031 L 467.65625 132.332031 Z M 467.65625 16.59375 " clip-rule="nonzero"/></clipPath><clipPath id="9725d2fb2a"><path d="M 492 16.59375 L 575 16.59375 L 575 132.332031 L 492 132.332031 Z M 492 16.59375 " clip-rule="nonzero"/></clipPath><clipPath id="c5b81fb2ba"><path d="M 518 16.59375 L 600 16.59375 L 600 132.332031 L 518 132.332031 Z M 518 16.59375 " clip-rule="nonzero"/></clipPath></defs><g fill="#ffffff" fill-opacity="1"><g transform="translate(-0.739601, 102.945386)"><g><path d="M 23.328125 -26.59375 C 25.148438 -26.59375 26.738281 -26.816406 28.09375 -27.265625 C 29.457031 -27.722656 30.585938 -28.375 31.484375 -29.21875 C 32.378906 -30.070312 33.050781 -31.109375 33.5 -32.328125 C 33.945312 -33.554688 34.171875 -34.921875 34.171875 -36.421875 C 34.171875 -37.847656 33.945312 -39.140625 33.5 -40.296875 C 33.050781 -41.460938 32.382812 -42.453125 31.5 -43.265625 C 30.613281 -44.078125 29.492188 -44.695312 28.140625 -45.125 C 26.785156 -45.5625 25.179688 -45.78125 23.328125 -45.78125 L 15.90625 -45.78125 L 15.90625 -26.59375 Z M 23.328125 -53.46875 C 26.898438 -53.46875 29.992188 -53.046875 32.609375 -52.203125 C 35.222656 -51.367188 37.378906 -50.195312 39.078125 -48.6875 C 40.785156 -47.1875 42.050781 -45.390625 42.875 -43.296875 C 43.695312 -41.203125 44.109375 -38.910156 44.109375 -36.421875 C 44.109375 -33.835938 43.675781 -31.460938 42.8125 -29.296875 C 41.957031 -27.140625 40.664062 -25.285156 38.9375 -23.734375 C 37.207031 -22.179688 35.039062 -20.972656 32.4375 -20.109375 C 29.84375 -19.253906 26.804688 -18.828125 23.328125 -18.828125 L 15.90625 -18.828125 L 15.90625 0 L 5.953125 0 L 5.953125 -53.46875 Z M 23.328125 -53.46875 "/></g></g></g><g fill="#ffffff" fill-opacity="1"><g transform="translate(43.54842, 102.945386)"><g><path d="M 13.640625 -33.875 C 15.117188 -35.25 16.742188 -36.367188 18.515625 -37.234375 C 20.296875 -38.097656 22.382812 -38.53125 24.78125 -38.53125 C 26.84375 -38.53125 28.675781 -38.175781 30.28125 -37.46875 C 31.882812 -36.769531 33.222656 -35.785156 34.296875 -34.515625 C 35.367188 -33.242188 36.179688 -31.726562 36.734375 -29.96875 C 37.285156 -28.207031 37.5625 -26.265625 37.5625 -24.140625 L 37.5625 0 L 28.4375 0 L 28.4375 -24.140625 C 28.4375 -26.460938 27.90625 -28.257812 26.84375 -29.53125 C 25.78125 -30.800781 24.164062 -31.4375 22 -31.4375 C 20.425781 -31.4375 18.945312 -31.078125 17.5625 -30.359375 C 16.1875 -29.640625 14.878906 -28.664062 13.640625 -27.4375 L 13.640625 0 L 4.515625 0 L 4.515625 -54.953125 L 13.640625 -54.953125 Z M 13.640625 -33.875 "/></g></g></g><g fill="#ffffff" fill-opacity="1"><g transform="translate(83.769886, 102.945386)"><g><path d="M 13.984375 -37.9375 L 13.984375 0 L 4.8125 0 L 4.8125 -37.9375 Z M 15.234375 -49 C 15.234375 -48.207031 15.070312 -47.460938 14.75 -46.765625 C 14.425781 -46.078125 14 -45.472656 13.46875 -44.953125 C 12.945312 -44.441406 12.328125 -44.03125 11.609375 -43.71875 C 10.890625 -43.414062 10.125 -43.265625 9.3125 -43.265625 C 8.53125 -43.265625 7.785156 -43.414062 7.078125 -43.71875 C 6.378906 -44.03125 5.769531 -44.441406 5.25 -44.953125 C 4.726562 -45.472656 4.3125 -46.078125 4 -46.765625 C 3.695312 -47.460938 3.546875 -48.207031 3.546875 -49 C 3.546875 -49.8125 3.695312 -50.570312 4 -51.28125 C 4.3125 -52 4.726562 -52.613281 5.25 -53.125 C 5.769531 -53.644531 6.378906 -54.0625 7.078125 -54.375 C 7.785156 -54.6875 8.53125 -54.84375 9.3125 -54.84375 C 10.125 -54.84375 10.890625 -54.6875 11.609375 -54.375 C 12.328125 -54.0625 12.945312 -53.644531 13.46875 -53.125 C 14 -52.613281 14.425781 -52 14.75 -51.28125 C 15.070312 -50.570312 15.234375 -49.8125 15.234375 -49 Z M 15.234375 -49 "/></g></g></g><g fill="#ffffff" fill-opacity="1"><g transform="translate(101.070755, 102.945386)"><g><path d="M 13.75 -54.953125 L 13.75 0 L 4.625 0 L 4.625 -54.953125 Z M 13.75 -54.953125 "/></g></g></g><g fill="#ffffff" fill-opacity="1"><g transform="translate(117.964975, 102.945386)"><g><path d="M 24.546875 -16.203125 C 21.910156 -16.078125 19.691406 -15.847656 17.890625 -15.515625 C 16.097656 -15.179688 14.65625 -14.753906 13.5625 -14.234375 C 12.476562 -13.710938 11.703125 -13.109375 11.234375 -12.421875 C 10.765625 -11.734375 10.53125 -10.984375 10.53125 -10.171875 C 10.53125 -8.566406 11.003906 -7.414062 11.953125 -6.71875 C 12.910156 -6.03125 14.148438 -5.6875 15.671875 -5.6875 C 17.546875 -5.6875 19.164062 -6.023438 20.53125 -6.703125 C 21.90625 -7.390625 23.242188 -8.421875 24.546875 -9.796875 Z M 3.625 -32.65625 C 7.988281 -36.644531 13.238281 -38.640625 19.375 -38.640625 C 21.59375 -38.640625 23.578125 -38.273438 25.328125 -37.546875 C 27.078125 -36.816406 28.554688 -35.804688 29.765625 -34.515625 C 30.972656 -33.222656 31.890625 -31.675781 32.515625 -29.875 C 33.148438 -28.070312 33.46875 -26.097656 33.46875 -23.953125 L 33.46875 0 L 29.328125 0 C 28.460938 0 27.796875 -0.128906 27.328125 -0.390625 C 26.859375 -0.648438 26.488281 -1.171875 26.21875 -1.953125 L 25.40625 -4.703125 C 24.4375 -3.835938 23.492188 -3.078125 22.578125 -2.421875 C 21.671875 -1.765625 20.722656 -1.210938 19.734375 -0.765625 C 18.753906 -0.328125 17.703125 0.00390625 16.578125 0.234375 C 15.460938 0.472656 14.226562 0.59375 12.875 0.59375 C 11.269531 0.59375 9.785156 0.378906 8.421875 -0.046875 C 7.066406 -0.484375 5.894531 -1.132812 4.90625 -2 C 3.925781 -2.863281 3.164062 -3.9375 2.625 -5.21875 C 2.082031 -6.5 1.8125 -7.988281 1.8125 -9.6875 C 1.8125 -10.644531 1.96875 -11.597656 2.28125 -12.546875 C 2.601562 -13.503906 3.128906 -14.410156 3.859375 -15.265625 C 4.585938 -16.128906 5.53125 -16.941406 6.6875 -17.703125 C 7.851562 -18.472656 9.28125 -19.140625 10.96875 -19.703125 C 12.65625 -20.273438 14.617188 -20.738281 16.859375 -21.09375 C 19.097656 -21.445312 21.660156 -21.664062 24.546875 -21.75 L 24.546875 -23.953125 C 24.546875 -26.492188 24.003906 -28.375 22.921875 -29.59375 C 21.835938 -30.820312 20.273438 -31.4375 18.234375 -31.4375 C 16.753906 -31.4375 15.523438 -31.257812 14.546875 -30.90625 C 13.578125 -30.5625 12.722656 -30.171875 11.984375 -29.734375 C 11.242188 -29.304688 10.570312 -28.921875 9.96875 -28.578125 C 9.363281 -28.234375 8.691406 -28.0625 7.953125 -28.0625 C 7.304688 -28.0625 6.757812 -28.226562 6.3125 -28.5625 C 5.875 -28.894531 5.519531 -29.285156 5.25 -29.734375 Z M 3.625 -32.65625 "/></g></g></g><g fill="#ffffff" fill-opacity="1"><g transform="translate(154.008963, 102.945386)"><g><path d="M 13.046875 -33.28125 C 13.816406 -34.039062 14.625 -34.75 15.46875 -35.40625 C 16.320312 -36.0625 17.222656 -36.613281 18.171875 -37.0625 C 19.117188 -37.519531 20.132812 -37.878906 21.21875 -38.140625 C 22.300781 -38.398438 23.488281 -38.53125 24.78125 -38.53125 C 26.84375 -38.53125 28.675781 -38.175781 30.28125 -37.46875 C 31.882812 -36.769531 33.222656 -35.785156 34.296875 -34.515625 C 35.367188 -33.242188 36.179688 -31.726562 36.734375 -29.96875 C 37.285156 -28.207031 37.5625 -26.265625 37.5625 -24.140625 L 37.5625 0 L 28.4375 0 L 28.4375 -24.140625 C 28.4375 -26.460938 27.90625 -28.257812 26.84375 -29.53125 C 25.78125 -30.800781 24.164062 -31.4375 22 -31.4375 C 20.425781 -31.4375 18.945312 -31.078125 17.5625 -30.359375 C 16.1875 -29.640625 14.878906 -28.664062 13.640625 -27.4375 L 13.640625 0 L 4.515625 0 L 4.515625 -37.9375 L 10.09375 -37.9375 C 11.28125 -37.9375 12.054688 -37.382812 12.421875 -36.28125 Z M 13.046875 -33.28125 "/></g></g></g><g fill="#ffffff" fill-opacity="1"><g transform="translate(194.230428, 102.945386)"><g><path d="M 17.15625 0.59375 C 13.851562 0.59375 11.320312 -0.332031 9.5625 -2.1875 C 7.800781 -4.050781 6.921875 -6.625 6.921875 -9.90625 L 6.921875 -31.09375 L 3.03125 -31.09375 C 2.539062 -31.09375 2.117188 -31.253906 1.765625 -31.578125 C 1.421875 -31.898438 1.25 -32.378906 1.25 -33.015625 L 1.25 -36.640625 L 7.359375 -37.640625 L 9.28125 -48 C 9.40625 -48.488281 9.640625 -48.867188 9.984375 -49.140625 C 10.328125 -49.410156 10.769531 -49.546875 11.3125 -49.546875 L 16.046875 -49.546875 L 16.046875 -37.609375 L 26.171875 -37.609375 L 26.171875 -31.09375 L 16.046875 -31.09375 L 16.046875 -10.53125 C 16.046875 -9.351562 16.332031 -8.429688 16.90625 -7.765625 C 17.488281 -7.097656 18.285156 -6.765625 19.296875 -6.765625 C 19.867188 -6.765625 20.34375 -6.832031 20.71875 -6.96875 C 21.101562 -7.101562 21.4375 -7.242188 21.71875 -7.390625 C 22.007812 -7.535156 22.265625 -7.675781 22.484375 -7.8125 C 22.703125 -7.957031 22.921875 -8.03125 23.140625 -8.03125 C 23.410156 -8.03125 23.632812 -7.957031 23.8125 -7.8125 C 23.988281 -7.675781 24.175781 -7.472656 24.375 -7.203125 L 27.109375 -2.765625 C 25.773438 -1.660156 24.242188 -0.820312 22.515625 -0.25 C 20.796875 0.3125 19.007812 0.59375 17.15625 0.59375 Z M 17.15625 0.59375 "/></g></g></g><g fill="#ffffff" fill-opacity="1"><g transform="translate(220.255923, 102.945386)"><g><path d="M 13.640625 -33.875 C 15.117188 -35.25 16.742188 -36.367188 18.515625 -37.234375 C 20.296875 -38.097656 22.382812 -38.53125 24.78125 -38.53125 C 26.84375 -38.53125 28.675781 -38.175781 30.28125 -37.46875 C 31.882812 -36.769531 33.222656 -35.785156 34.296875 -34.515625 C 35.367188 -33.242188 36.179688 -31.726562 36.734375 -29.96875 C 37.285156 -28.207031 37.5625 -26.265625 37.5625 -24.140625 L 37.5625 0 L 28.4375 0 L 28.4375 -24.140625 C 28.4375 -26.460938 27.90625 -28.257812 26.84375 -29.53125 C 25.78125 -30.800781 24.164062 -31.4375 22 -31.4375 C 20.425781 -31.4375 18.945312 -31.078125 17.5625 -30.359375 C 16.1875 -29.640625 14.878906 -28.664062 13.640625 -27.4375 L 13.640625 0 L 4.515625 0 L 4.515625 -54.953125 L 13.640625 -54.953125 Z M 13.640625 -33.875 "/></g></g></g><g fill="#ffffff" fill-opacity="1"><g transform="translate(260.477388, 102.945386)"><g><path d="M 13.125 -31.359375 C 14.3125 -33.628906 15.71875 -35.410156 17.34375 -36.703125 C 18.96875 -37.992188 20.890625 -38.640625 23.109375 -38.640625 C 24.859375 -38.640625 26.265625 -38.257812 27.328125 -37.5 L 26.734375 -30.65625 C 26.609375 -30.207031 26.425781 -29.890625 26.1875 -29.703125 C 25.957031 -29.523438 25.644531 -29.4375 25.25 -29.4375 C 24.882812 -29.4375 24.335938 -29.492188 23.609375 -29.609375 C 22.878906 -29.734375 22.171875 -29.796875 21.484375 -29.796875 C 20.472656 -29.796875 19.570312 -29.648438 18.78125 -29.359375 C 17.988281 -29.066406 17.28125 -28.640625 16.65625 -28.078125 C 16.03125 -27.523438 15.472656 -26.851562 14.984375 -26.0625 C 14.503906 -25.28125 14.054688 -24.382812 13.640625 -23.375 L 13.640625 0 L 4.515625 0 L 4.515625 -37.9375 L 9.875 -37.9375 C 10.8125 -37.9375 11.460938 -37.769531 11.828125 -37.4375 C 12.203125 -37.101562 12.453125 -36.503906 12.578125 -35.640625 Z M 13.125 -31.359375 "/></g></g></g><g fill="#ffffff" fill-opacity="1"><g transform="translate(286.576803, 102.945386)"><g><path d="M 21.296875 -38.53125 C 24.109375 -38.53125 26.664062 -38.070312 28.96875 -37.15625 C 31.269531 -36.25 33.238281 -34.957031 34.875 -33.28125 C 36.519531 -31.601562 37.785156 -29.554688 38.671875 -27.140625 C 39.566406 -24.722656 40.015625 -22.023438 40.015625 -19.046875 C 40.015625 -16.035156 39.566406 -13.320312 38.671875 -10.90625 C 37.785156 -8.488281 36.519531 -6.429688 34.875 -4.734375 C 33.238281 -3.035156 31.269531 -1.726562 28.96875 -0.8125 C 26.664062 0.09375 24.109375 0.546875 21.296875 0.546875 C 18.460938 0.546875 15.882812 0.09375 13.5625 -0.8125 C 11.25 -1.726562 9.269531 -3.035156 7.625 -4.734375 C 5.988281 -6.429688 4.722656 -8.488281 3.828125 -10.90625 C 2.929688 -13.320312 2.484375 -16.035156 2.484375 -19.046875 C 2.484375 -22.023438 2.929688 -24.722656 3.828125 -27.140625 C 4.722656 -29.554688 5.988281 -31.601562 7.625 -33.28125 C 9.269531 -34.957031 11.25 -36.25 13.5625 -37.15625 C 15.882812 -38.070312 18.460938 -38.53125 21.296875 -38.53125 Z M 21.296875 -6.46875 C 24.453125 -6.46875 26.785156 -7.523438 28.296875 -9.640625 C 29.816406 -11.765625 30.578125 -14.875 30.578125 -18.96875 C 30.578125 -23.0625 29.816406 -26.179688 28.296875 -28.328125 C 26.785156 -30.472656 24.453125 -31.546875 21.296875 -31.546875 C 18.085938 -31.546875 15.710938 -30.460938 14.171875 -28.296875 C 12.640625 -26.140625 11.875 -23.03125 11.875 -18.96875 C 11.875 -14.90625 12.640625 -11.804688 14.171875 -9.671875 C 15.710938 -7.535156 18.085938 -6.46875 21.296875 -6.46875 Z M 21.296875 -6.46875 "/></g></g></g><g fill="#ffffff" fill-opacity="1"><g transform="translate(327.574607, 102.945386)"><g><path d="M 27.65625 -30.546875 C 27.40625 -30.148438 27.144531 -29.867188 26.875 -29.703125 C 26.601562 -29.546875 26.257812 -29.46875 25.84375 -29.46875 C 25.40625 -29.46875 24.929688 -29.585938 24.421875 -29.828125 C 23.921875 -30.078125 23.335938 -30.359375 22.671875 -30.671875 C 22.003906 -30.984375 21.242188 -31.257812 20.390625 -31.5 C 19.535156 -31.75 18.53125 -31.875 17.375 -31.875 C 15.582031 -31.875 14.171875 -31.488281 13.140625 -30.71875 C 12.117188 -29.957031 11.609375 -28.960938 11.609375 -27.734375 C 11.609375 -26.921875 11.875 -26.234375 12.40625 -25.671875 C 12.9375 -25.117188 13.640625 -24.632812 14.515625 -24.21875 C 15.390625 -23.800781 16.378906 -23.425781 17.484375 -23.09375 C 18.597656 -22.757812 19.726562 -22.394531 20.875 -22 C 22.019531 -21.601562 23.144531 -21.148438 24.25 -20.640625 C 25.363281 -20.140625 26.359375 -19.5 27.234375 -18.71875 C 28.109375 -17.945312 28.8125 -17.019531 29.34375 -15.9375 C 29.875 -14.851562 30.140625 -13.546875 30.140625 -12.015625 C 30.140625 -10.191406 29.8125 -8.507812 29.15625 -6.96875 C 28.5 -5.425781 27.53125 -4.09375 26.25 -2.96875 C 24.96875 -1.851562 23.382812 -0.976562 21.5 -0.34375 C 19.613281 0.28125 17.4375 0.59375 14.96875 0.59375 C 13.664062 0.59375 12.390625 0.472656 11.140625 0.234375 C 9.898438 0.00390625 8.707031 -0.316406 7.5625 -0.734375 C 6.414062 -1.160156 5.351562 -1.65625 4.375 -2.21875 C 3.40625 -2.78125 2.550781 -3.394531 1.8125 -4.0625 L 3.921875 -7.546875 C 4.191406 -7.960938 4.507812 -8.28125 4.875 -8.5 C 5.25 -8.726562 5.71875 -8.84375 6.28125 -8.84375 C 6.851562 -8.84375 7.390625 -8.679688 7.890625 -8.359375 C 8.398438 -8.035156 8.988281 -7.6875 9.65625 -7.3125 C 10.320312 -6.945312 11.101562 -6.601562 12 -6.28125 C 12.894531 -5.96875 14.035156 -5.8125 15.421875 -5.8125 C 16.503906 -5.8125 17.429688 -5.9375 18.203125 -6.1875 C 18.984375 -6.445312 19.625 -6.785156 20.125 -7.203125 C 20.632812 -7.628906 21.003906 -8.117188 21.234375 -8.671875 C 21.472656 -9.222656 21.59375 -9.796875 21.59375 -10.390625 C 21.59375 -11.273438 21.328125 -12 20.796875 -12.5625 C 20.265625 -13.132812 19.5625 -13.628906 18.6875 -14.046875 C 17.8125 -14.472656 16.8125 -14.847656 15.6875 -15.171875 C 14.570312 -15.503906 13.425781 -15.867188 12.25 -16.265625 C 11.082031 -16.660156 9.9375 -17.125 8.8125 -17.65625 C 7.695312 -18.1875 6.703125 -18.859375 5.828125 -19.671875 C 4.953125 -20.484375 4.25 -21.476562 3.71875 -22.65625 C 3.1875 -23.84375 2.921875 -25.273438 2.921875 -26.953125 C 2.921875 -28.503906 3.226562 -29.984375 3.84375 -31.390625 C 4.457031 -32.796875 5.363281 -34.019531 6.5625 -35.0625 C 7.757812 -36.113281 9.25 -36.953125 11.03125 -37.578125 C 12.820312 -38.210938 14.890625 -38.53125 17.234375 -38.53125 C 19.847656 -38.53125 22.222656 -38.097656 24.359375 -37.234375 C 26.503906 -36.367188 28.296875 -35.234375 29.734375 -33.828125 Z M 27.65625 -30.546875 "/></g></g></g><g fill="#ffffff" fill-opacity="1"><g transform="translate(358.590836, 102.945386)"><g><path d="M 21.296875 -38.53125 C 24.109375 -38.53125 26.664062 -38.070312 28.96875 -37.15625 C 31.269531 -36.25 33.238281 -34.957031 34.875 -33.28125 C 36.519531 -31.601562 37.785156 -29.554688 38.671875 -27.140625 C 39.566406 -24.722656 40.015625 -22.023438 40.015625 -19.046875 C 40.015625 -16.035156 39.566406 -13.320312 38.671875 -10.90625 C 37.785156 -8.488281 36.519531 -6.429688 34.875 -4.734375 C 33.238281 -3.035156 31.269531 -1.726562 28.96875 -0.8125 C 26.664062 0.09375 24.109375 0.546875 21.296875 0.546875 C 18.460938 0.546875 15.882812 0.09375 13.5625 -0.8125 C 11.25 -1.726562 9.269531 -3.035156 7.625 -4.734375 C 5.988281 -6.429688 4.722656 -8.488281 3.828125 -10.90625 C 2.929688 -13.320312 2.484375 -16.035156 2.484375 -19.046875 C 2.484375 -22.023438 2.929688 -24.722656 3.828125 -27.140625 C 4.722656 -29.554688 5.988281 -31.601562 7.625 -33.28125 C 9.269531 -34.957031 11.25 -36.25 13.5625 -37.15625 C 15.882812 -38.070312 18.460938 -38.53125 21.296875 -38.53125 Z M 21.296875 -6.46875 C 24.453125 -6.46875 26.785156 -7.523438 28.296875 -9.640625 C 29.816406 -11.765625 30.578125 -14.875 30.578125 -18.96875 C 30.578125 -23.0625 29.816406 -26.179688 28.296875 -28.328125 C 26.785156 -30.472656 24.453125 -31.546875 21.296875 -31.546875 C 18.085938 -31.546875 15.710938 -30.460938 14.171875 -28.296875 C 12.640625 -26.140625 11.875 -23.03125 11.875 -18.96875 C 11.875 -14.90625 12.640625 -11.804688 14.171875 -9.671875 C 15.710938 -7.535156 18.085938 -6.46875 21.296875 -6.46875 Z M 21.296875 -6.46875 "/></g></g></g><g fill="#ffffff" fill-opacity="1"><g transform="translate(399.58864, 102.945386)"><g><path d="M 7.171875 0 L 7.171875 -31.0625 L 3.875 -31.578125 C 3.164062 -31.722656 2.59375 -31.972656 2.15625 -32.328125 C 1.726562 -32.691406 1.515625 -33.207031 1.515625 -33.875 L 1.515625 -37.609375 L 7.171875 -37.609375 L 7.171875 -40.421875 C 7.171875 -42.585938 7.5 -44.53125 8.15625 -46.25 C 8.8125 -47.976562 9.75 -49.445312 10.96875 -50.65625 C 12.1875 -51.863281 13.671875 -52.785156 15.421875 -53.421875 C 17.171875 -54.066406 19.140625 -54.390625 21.328125 -54.390625 C 23.078125 -54.390625 24.707031 -54.15625 26.21875 -53.6875 L 26.03125 -49.109375 C 26.007812 -48.765625 25.910156 -48.484375 25.734375 -48.265625 C 25.566406 -48.054688 25.335938 -47.894531 25.046875 -47.78125 C 24.765625 -47.675781 24.4375 -47.601562 24.0625 -47.5625 C 23.695312 -47.53125 23.304688 -47.515625 22.890625 -47.515625 C 21.804688 -47.515625 20.835938 -47.394531 19.984375 -47.15625 C 19.128906 -46.925781 18.40625 -46.519531 17.8125 -45.9375 C 17.226562 -45.363281 16.78125 -44.601562 16.46875 -43.65625 C 16.164062 -42.707031 16.015625 -41.53125 16.015625 -40.125 L 16.015625 -37.609375 L 25.890625 -37.609375 L 25.890625 -31.09375 L 16.3125 -31.09375 L 16.3125 0 Z M 7.171875 0 "/></g></g></g><g fill="#ffffff" fill-opacity="1"><g transform="translate(424.615949, 102.945386)"><g><path d="M 17.15625 0.59375 C 13.851562 0.59375 11.320312 -0.332031 9.5625 -2.1875 C 7.800781 -4.050781 6.921875 -6.625 6.921875 -9.90625 L 6.921875 -31.09375 L 3.03125 -31.09375 C 2.539062 -31.09375 2.117188 -31.253906 1.765625 -31.578125 C 1.421875 -31.898438 1.25 -32.378906 1.25 -33.015625 L 1.25 -36.640625 L 7.359375 -37.640625 L 9.28125 -48 C 9.40625 -48.488281 9.640625 -48.867188 9.984375 -49.140625 C 10.328125 -49.410156 10.769531 -49.546875 11.3125 -49.546875 L 16.046875 -49.546875 L 16.046875 -37.609375 L 26.171875 -37.609375 L 26.171875 -31.09375 L 16.046875 -31.09375 L 16.046875 -10.53125 C 16.046875 -9.351562 16.332031 -8.429688 16.90625 -7.765625 C 17.488281 -7.097656 18.285156 -6.765625 19.296875 -6.765625 C 19.867188 -6.765625 20.34375 -6.832031 20.71875 -6.96875 C 21.101562 -7.101562 21.4375 -7.242188 21.71875 -7.390625 C 22.007812 -7.535156 22.265625 -7.675781 22.484375 -7.8125 C 22.703125 -7.957031 22.921875 -8.03125 23.140625 -8.03125 C 23.410156 -8.03125 23.632812 -7.957031 23.8125 -7.8125 C 23.988281 -7.675781 24.175781 -7.472656 24.375 -7.203125 L 27.109375 -2.765625 C 25.773438 -1.660156 24.242188 -0.820312 22.515625 -0.25 C 20.796875 0.3125 19.007812 0.59375 17.15625 0.59375 Z M 17.15625 0.59375 "/></g></g></g><g fill="#ffffff" fill-opacity="1"><g transform="translate(450.657731, 102.945386)"><g/></g></g><g fill="#ffffff" fill-opacity="1"><g transform="translate(467.145299, 102.945386)"><g/></g></g><g clip-path="url(#4d3cb393ef)"><path fill="#8400ba" d="M 467.746094 16.734375 L 467.65625 132.148438 L 547.800781 74.554688 Z M 467.746094 16.734375 " fill-opacity="1" fill-rule="nonzero"/></g><g clip-path="url(#9725d2fb2a)"><path fill="#8400ba" d="M 494.691406 18.425781 L 572.414062 74.554688 L 494.644531 130.410156 L 494.691406 18.425781 M 494.691406 16.59375 C 494.414062 16.59375 494.140625 16.640625 493.867188 16.777344 C 493.273438 17.097656 492.859375 17.738281 492.859375 18.425781 L 492.816406 130.410156 C 492.816406 131.097656 493.179688 131.738281 493.820312 132.058594 C 494.09375 132.195312 494.371094 132.242188 494.644531 132.242188 C 495.011719 132.242188 495.375 132.105469 495.695312 131.875 L 573.464844 76.019531 C 573.921875 75.652344 574.242188 75.105469 574.242188 74.554688 C 574.242188 73.960938 573.96875 73.410156 573.464844 73.089844 L 495.789062 16.960938 C 495.46875 16.734375 495.101562 16.59375 494.691406 16.59375 Z M 494.691406 16.59375 " fill-opacity="1" fill-rule="nonzero"/></g><g clip-path="url(#c5b81fb2ba)"><path fill="#8400ba" d="M 520.492188 18.515625 L 598.167969 74.648438 L 520.398438 130.503906 L 520.492188 18.515625 M 520.492188 16.6875 C 520.214844 16.6875 519.941406 16.734375 519.667969 16.871094 C 519.074219 17.191406 518.660156 17.832031 518.660156 18.515625 L 518.570312 130.503906 C 518.570312 131.1875 518.9375 131.828125 519.574219 132.148438 C 519.851562 132.285156 520.125 132.332031 520.398438 132.332031 C 520.765625 132.332031 521.132812 132.195312 521.453125 131.964844 L 599.21875 76.109375 C 599.675781 75.746094 599.996094 75.195312 599.996094 74.648438 C 599.996094 74.050781 599.722656 73.503906 599.21875 73.183594 L 521.589844 17.054688 C 521.269531 16.824219 520.855469 16.6875 520.492188 16.6875 Z M 520.492188 16.6875 " fill-opacity="1" fill-rule="nonzero"/></g><g fill="#ffffff" fill-opacity="1"><g transform="translate(4.546258, 127.748179)"><g><path d="M 7.125 -11.46875 C 5.726562 -11.46875 4.640625 -11.015625 3.859375 -10.109375 C 3.078125 -9.210938 2.6875 -7.976562 2.6875 -6.40625 C 2.6875 -4.84375 3.09375 -3.585938 3.90625 -2.640625 C 4.71875 -1.703125 5.816406 -1.234375 7.203125 -1.234375 C 8.972656 -1.234375 10.304688 -2.113281 11.203125 -3.875 L 12.609375 -3.171875 C 12.085938 -2.078125 11.351562 -1.242188 10.40625 -0.671875 C 9.46875 -0.0976562 8.375 0.1875 7.125 0.1875 C 5.84375 0.1875 4.734375 -0.078125 3.796875 -0.609375 C 2.867188 -1.140625 2.160156 -1.898438 1.671875 -2.890625 C 1.179688 -3.878906 0.9375 -5.050781 0.9375 -6.40625 C 0.9375 -8.425781 1.484375 -10.007812 2.578125 -11.15625 C 3.671875 -12.300781 5.179688 -12.875 7.109375 -12.875 C 8.460938 -12.875 9.59375 -12.609375 10.5 -12.078125 C 11.40625 -11.554688 12.070312 -10.773438 12.5 -9.734375 L 10.859375 -9.1875 C 10.566406 -9.925781 10.09375 -10.488281 9.4375 -10.875 C 8.789062 -11.269531 8.019531 -11.46875 7.125 -11.46875 Z M 7.125 -11.46875 "/></g></g></g><g fill="#ffffff" fill-opacity="1"><g transform="translate(17.853004, 127.748179)"><g><path d="M 9.484375 -4.875 C 9.484375 -3.175781 9.109375 -1.90625 8.359375 -1.0625 C 7.609375 -0.226562 6.519531 0.1875 5.09375 0.1875 C 3.664062 0.1875 2.585938 -0.242188 1.859375 -1.109375 C 1.140625 -1.984375 0.78125 -3.238281 0.78125 -4.875 C 0.78125 -8.238281 2.234375 -9.921875 5.140625 -9.921875 C 6.628906 -9.921875 7.722656 -9.507812 8.421875 -8.6875 C 9.128906 -7.875 9.484375 -6.601562 9.484375 -4.875 Z M 7.78125 -4.875 C 7.78125 -6.21875 7.578125 -7.191406 7.171875 -7.796875 C 6.773438 -8.410156 6.109375 -8.71875 5.171875 -8.71875 C 4.222656 -8.71875 3.535156 -8.40625 3.109375 -7.78125 C 2.679688 -7.164062 2.46875 -6.195312 2.46875 -4.875 C 2.46875 -3.59375 2.675781 -2.628906 3.09375 -1.984375 C 3.519531 -1.335938 4.175781 -1.015625 5.0625 -1.015625 C 6.039062 -1.015625 6.738281 -1.328125 7.15625 -1.953125 C 7.570312 -2.578125 7.78125 -3.550781 7.78125 -4.875 Z M 7.78125 -4.875 "/></g></g></g><g fill="#ffffff" fill-opacity="1"><g transform="translate(28.100728, 127.748179)"><g><path d="M 7.421875 0 L 7.421875 -6.171875 C 7.421875 -6.816406 7.359375 -7.316406 7.234375 -7.671875 C 7.109375 -8.023438 6.90625 -8.28125 6.625 -8.4375 C 6.351562 -8.59375 5.953125 -8.671875 5.421875 -8.671875 C 4.640625 -8.671875 4.023438 -8.398438 3.578125 -7.859375 C 3.128906 -7.328125 2.90625 -6.585938 2.90625 -5.640625 L 2.90625 0 L 1.28125 0 L 1.28125 -7.65625 C 1.28125 -8.789062 1.257812 -9.484375 1.21875 -9.734375 L 2.75 -9.734375 C 2.757812 -9.710938 2.765625 -9.632812 2.765625 -9.5 C 2.773438 -9.363281 2.785156 -9.207031 2.796875 -9.03125 C 2.804688 -8.863281 2.816406 -8.546875 2.828125 -8.078125 L 2.859375 -8.078125 C 3.222656 -8.742188 3.648438 -9.21875 4.140625 -9.5 C 4.628906 -9.78125 5.238281 -9.921875 5.96875 -9.921875 C 7.039062 -9.921875 7.820312 -9.65625 8.3125 -9.125 C 8.8125 -8.59375 9.0625 -7.710938 9.0625 -6.484375 L 9.0625 0 Z M 7.421875 0 "/></g></g></g><g fill="#ffffff" fill-opacity="1"><g transform="translate(38.348452, 127.748179)"><g><path d="M 7.421875 0 L 7.421875 -6.171875 C 7.421875 -6.816406 7.359375 -7.316406 7.234375 -7.671875 C 7.109375 -8.023438 6.90625 -8.28125 6.625 -8.4375 C 6.351562 -8.59375 5.953125 -8.671875 5.421875 -8.671875 C 4.640625 -8.671875 4.023438 -8.398438 3.578125 -7.859375 C 3.128906 -7.328125 2.90625 -6.585938 2.90625 -5.640625 L 2.90625 0 L 1.28125 0 L 1.28125 -7.65625 C 1.28125 -8.789062 1.257812 -9.484375 1.21875 -9.734375 L 2.75 -9.734375 C 2.757812 -9.710938 2.765625 -9.632812 2.765625 -9.5 C 2.773438 -9.363281 2.785156 -9.207031 2.796875 -9.03125 C 2.804688 -8.863281 2.816406 -8.546875 2.828125 -8.078125 L 2.859375 -8.078125 C 3.222656 -8.742188 3.648438 -9.21875 4.140625 -9.5 C 4.628906 -9.78125 5.238281 -9.921875 5.96875 -9.921875 C 7.039062 -9.921875 7.820312 -9.65625 8.3125 -9.125 C 8.8125 -8.59375 9.0625 -7.710938 9.0625 -6.484375 L 9.0625 0 Z M 7.421875 0 "/></g></g></g><g fill="#ffffff" fill-opacity="1"><g transform="translate(48.596176, 127.748179)"><g><path d="M 2.484375 -4.53125 C 2.484375 -3.414062 2.710938 -2.550781 3.171875 -1.9375 C 3.640625 -1.332031 4.316406 -1.03125 5.203125 -1.03125 C 5.898438 -1.03125 6.460938 -1.171875 6.890625 -1.453125 C 7.316406 -1.734375 7.601562 -2.09375 7.75 -2.53125 L 9.171875 -2.125 C 8.585938 -0.582031 7.265625 0.1875 5.203125 0.1875 C 3.765625 0.1875 2.664062 -0.238281 1.90625 -1.09375 C 1.15625 -1.957031 0.78125 -3.238281 0.78125 -4.9375 C 0.78125 -6.539062 1.15625 -7.769531 1.90625 -8.625 C 2.664062 -9.488281 3.742188 -9.921875 5.140625 -9.921875 C 8.003906 -9.921875 9.4375 -8.195312 9.4375 -4.75 L 9.4375 -4.53125 Z M 7.765625 -5.765625 C 7.671875 -6.796875 7.40625 -7.546875 6.96875 -8.015625 C 6.539062 -8.484375 5.921875 -8.71875 5.109375 -8.71875 C 4.328125 -8.71875 3.707031 -8.453125 3.25 -7.921875 C 2.789062 -7.398438 2.539062 -6.679688 2.5 -5.765625 Z M 7.765625 -5.765625 "/></g></g></g><g fill="#ffffff" fill-opacity="1"><g transform="translate(58.8439, 127.748179)"><g><path d="M 2.46875 -4.921875 C 2.46875 -3.617188 2.671875 -2.65625 3.078125 -2.03125 C 3.492188 -1.40625 4.113281 -1.09375 4.9375 -1.09375 C 5.507812 -1.09375 5.988281 -1.25 6.375 -1.5625 C 6.757812 -1.875 7 -2.351562 7.09375 -3 L 8.734375 -2.90625 C 8.609375 -1.96875 8.207031 -1.21875 7.53125 -0.65625 C 6.863281 -0.09375 6.015625 0.1875 4.984375 0.1875 C 3.617188 0.1875 2.578125 -0.242188 1.859375 -1.109375 C 1.140625 -1.972656 0.78125 -3.226562 0.78125 -4.875 C 0.78125 -6.519531 1.140625 -7.769531 1.859375 -8.625 C 2.578125 -9.488281 3.609375 -9.921875 4.953125 -9.921875 C 5.953125 -9.921875 6.78125 -9.660156 7.4375 -9.140625 C 8.09375 -8.628906 8.503906 -7.921875 8.671875 -7.015625 L 7.015625 -6.890625 C 6.929688 -7.429688 6.71875 -7.859375 6.375 -8.171875 C 6.03125 -8.492188 5.546875 -8.65625 4.921875 -8.65625 C 4.054688 -8.65625 3.429688 -8.367188 3.046875 -7.796875 C 2.660156 -7.222656 2.46875 -6.265625 2.46875 -4.921875 Z M 2.46875 -4.921875 "/></g></g></g><g fill="#ffffff" fill-opacity="1"><g transform="translate(68.056954, 127.748179)"><g><path d="M 4.984375 -0.078125 C 4.453125 0.0664062 3.90625 0.140625 3.34375 0.140625 C 2.050781 0.140625 1.40625 -0.59375 1.40625 -2.0625 L 1.40625 -8.5625 L 0.28125 -8.5625 L 0.28125 -9.734375 L 1.46875 -9.734375 L 1.9375 -11.921875 L 3.03125 -11.921875 L 3.03125 -9.734375 L 4.828125 -9.734375 L 4.828125 -8.5625 L 3.03125 -8.5625 L 3.03125 -2.40625 C 3.03125 -1.9375 3.101562 -1.609375 3.25 -1.421875 C 3.40625 -1.234375 3.671875 -1.140625 4.046875 -1.140625 C 4.265625 -1.140625 4.578125 -1.179688 4.984375 -1.265625 Z M 4.984375 -0.078125 "/></g></g></g><g fill="#ffffff" fill-opacity="1"><g transform="translate(73.176318, 127.748179)"><g><path d="M 1.234375 -11.8125 L 1.234375 -13.359375 L 2.859375 -13.359375 L 2.859375 -11.8125 Z M 1.234375 0 L 1.234375 -9.734375 L 2.859375 -9.734375 L 2.859375 0 Z M 1.234375 0 "/></g></g></g><g fill="#ffffff" fill-opacity="1"><g transform="translate(77.270009, 127.748179)"><g><path d="M 7.421875 0 L 7.421875 -6.171875 C 7.421875 -6.816406 7.359375 -7.316406 7.234375 -7.671875 C 7.109375 -8.023438 6.90625 -8.28125 6.625 -8.4375 C 6.351562 -8.59375 5.953125 -8.671875 5.421875 -8.671875 C 4.640625 -8.671875 4.023438 -8.398438 3.578125 -7.859375 C 3.128906 -7.328125 2.90625 -6.585938 2.90625 -5.640625 L 2.90625 0 L 1.28125 0 L 1.28125 -7.65625 C 1.28125 -8.789062 1.257812 -9.484375 1.21875 -9.734375 L 2.75 -9.734375 C 2.757812 -9.710938 2.765625 -9.632812 2.765625 -9.5 C 2.773438 -9.363281 2.785156 -9.207031 2.796875 -9.03125 C 2.804688 -8.863281 2.816406 -8.546875 2.828125 -8.078125 L 2.859375 -8.078125 C 3.222656 -8.742188 3.648438 -9.21875 4.140625 -9.5 C 4.628906 -9.78125 5.238281 -9.921875 5.96875 -9.921875 C 7.039062 -9.921875 7.820312 -9.65625 8.3125 -9.125 C 8.8125 -8.59375 9.0625 -7.710938 9.0625 -6.484375 L 9.0625 0 Z M 7.421875 0 "/></g></g></g><g fill="#ffffff" fill-opacity="1"><g transform="translate(87.517733, 127.748179)"><g><path d="M 4.9375 3.828125 C 3.875 3.828125 3.023438 3.617188 2.390625 3.203125 C 1.765625 2.785156 1.359375 2.191406 1.171875 1.421875 L 2.8125 1.1875 C 2.914062 1.632812 3.148438 1.976562 3.515625 2.21875 C 3.890625 2.46875 4.378906 2.59375 4.984375 2.59375 C 6.597656 2.59375 7.40625 1.644531 7.40625 -0.25 L 7.40625 -1.8125 L 7.375 -1.8125 C 7.070312 -1.1875 6.65625 -0.710938 6.125 -0.390625 C 5.59375 -0.078125 4.96875 0.078125 4.25 0.078125 C 3.050781 0.078125 2.171875 -0.316406 1.609375 -1.109375 C 1.054688 -1.910156 0.78125 -3.160156 0.78125 -4.859375 C 0.78125 -6.578125 1.078125 -7.84375 1.671875 -8.65625 C 2.273438 -9.476562 3.191406 -9.890625 4.421875 -9.890625 C 5.117188 -9.890625 5.71875 -9.734375 6.21875 -9.421875 C 6.726562 -9.109375 7.125 -8.660156 7.40625 -8.078125 L 7.421875 -8.078125 C 7.421875 -8.253906 7.429688 -8.5625 7.453125 -9 C 7.472656 -9.445312 7.5 -9.691406 7.53125 -9.734375 L 9.0625 -9.734375 C 9.03125 -9.410156 9.015625 -8.738281 9.015625 -7.71875 L 9.015625 -0.28125 C 9.015625 2.457031 7.65625 3.828125 4.9375 3.828125 Z M 7.40625 -4.875 C 7.40625 -5.664062 7.296875 -6.347656 7.078125 -6.921875 C 6.859375 -7.492188 6.550781 -7.929688 6.15625 -8.234375 C 5.769531 -8.535156 5.328125 -8.6875 4.828125 -8.6875 C 3.992188 -8.6875 3.390625 -8.382812 3.015625 -7.78125 C 2.640625 -7.1875 2.453125 -6.21875 2.453125 -4.875 C 2.453125 -3.539062 2.628906 -2.582031 2.984375 -2 C 3.335938 -1.414062 3.941406 -1.125 4.796875 -1.125 C 5.304688 -1.125 5.757812 -1.273438 6.15625 -1.578125 C 6.550781 -1.878906 6.859375 -2.304688 7.078125 -2.859375 C 7.296875 -3.421875 7.40625 -4.09375 7.40625 -4.875 Z M 7.40625 -4.875 "/></g></g></g><g fill="#ffffff" fill-opacity="1"><g transform="translate(97.765457, 127.748179)"><g/></g></g><g fill="#ffffff" fill-opacity="1"><g transform="translate(102.884821, 127.748179)"><g><path d="M 6.484375 -11.28125 L 6.484375 0 L 4.765625 0 L 4.765625 -11.28125 L 0.421875 -11.28125 L 0.421875 -12.6875 L 10.84375 -12.6875 L 10.84375 -11.28125 Z M 6.484375 -11.28125 "/></g></g></g><g fill="#ffffff" fill-opacity="1"><g transform="translate(114.140222, 127.748179)"><g><path d="M 2.484375 -4.53125 C 2.484375 -3.414062 2.710938 -2.550781 3.171875 -1.9375 C 3.640625 -1.332031 4.316406 -1.03125 5.203125 -1.03125 C 5.898438 -1.03125 6.460938 -1.171875 6.890625 -1.453125 C 7.316406 -1.734375 7.601562 -2.09375 7.75 -2.53125 L 9.171875 -2.125 C 8.585938 -0.582031 7.265625 0.1875 5.203125 0.1875 C 3.765625 0.1875 2.664062 -0.238281 1.90625 -1.09375 C 1.15625 -1.957031 0.78125 -3.238281 0.78125 -4.9375 C 0.78125 -6.539062 1.15625 -7.769531 1.90625 -8.625 C 2.664062 -9.488281 3.742188 -9.921875 5.140625 -9.921875 C 8.003906 -9.921875 9.4375 -8.195312 9.4375 -4.75 L 9.4375 -4.53125 Z M 7.765625 -5.765625 C 7.671875 -6.796875 7.40625 -7.546875 6.96875 -8.015625 C 6.539062 -8.484375 5.921875 -8.71875 5.109375 -8.71875 C 4.328125 -8.71875 3.707031 -8.453125 3.25 -7.921875 C 2.789062 -7.398438 2.539062 -6.679688 2.5 -5.765625 Z M 7.765625 -5.765625 "/></g></g></g><g fill="#ffffff" fill-opacity="1"><g transform="translate(124.387946, 127.748179)"><g><path d="M 2.46875 -4.921875 C 2.46875 -3.617188 2.671875 -2.65625 3.078125 -2.03125 C 3.492188 -1.40625 4.113281 -1.09375 4.9375 -1.09375 C 5.507812 -1.09375 5.988281 -1.25 6.375 -1.5625 C 6.757812 -1.875 7 -2.351562 7.09375 -3 L 8.734375 -2.90625 C 8.609375 -1.96875 8.207031 -1.21875 7.53125 -0.65625 C 6.863281 -0.09375 6.015625 0.1875 4.984375 0.1875 C 3.617188 0.1875 2.578125 -0.242188 1.859375 -1.109375 C 1.140625 -1.972656 0.78125 -3.226562 0.78125 -4.875 C 0.78125 -6.519531 1.140625 -7.769531 1.859375 -8.625 C 2.578125 -9.488281 3.609375 -9.921875 4.953125 -9.921875 C 5.953125 -9.921875 6.78125 -9.660156 7.4375 -9.140625 C 8.09375 -8.628906 8.503906 -7.921875 8.671875 -7.015625 L 7.015625 -6.890625 C 6.929688 -7.429688 6.71875 -7.859375 6.375 -8.171875 C 6.03125 -8.492188 5.546875 -8.65625 4.921875 -8.65625 C 4.054688 -8.65625 3.429688 -8.367188 3.046875 -7.796875 C 2.660156 -7.222656 2.46875 -6.265625 2.46875 -4.921875 Z M 2.46875 -4.921875 "/></g></g></g><g fill="#ffffff" fill-opacity="1"><g transform="translate(133.601001, 127.748179)"><g><path d="M 2.859375 -8.078125 C 3.203125 -8.710938 3.617188 -9.175781 4.109375 -9.46875 C 4.597656 -9.769531 5.21875 -9.921875 5.96875 -9.921875 C 7.019531 -9.921875 7.796875 -9.65625 8.296875 -9.125 C 8.804688 -8.601562 9.0625 -7.722656 9.0625 -6.484375 L 9.0625 0 L 7.421875 0 L 7.421875 -6.171875 C 7.421875 -6.859375 7.359375 -7.367188 7.234375 -7.703125 C 7.109375 -8.035156 6.898438 -8.28125 6.609375 -8.4375 C 6.328125 -8.59375 5.929688 -8.671875 5.421875 -8.671875 C 4.660156 -8.671875 4.050781 -8.40625 3.59375 -7.875 C 3.132812 -7.34375 2.90625 -6.632812 2.90625 -5.75 L 2.90625 0 L 1.28125 0 L 1.28125 -13.359375 L 2.90625 -13.359375 L 2.90625 -9.890625 C 2.90625 -9.515625 2.890625 -9.132812 2.859375 -8.75 C 2.835938 -8.363281 2.828125 -8.140625 2.828125 -8.078125 Z M 2.859375 -8.078125 "/></g></g></g><g fill="#ffffff" fill-opacity="1"><g transform="translate(143.848725, 127.748179)"><g><path d="M 7.421875 0 L 7.421875 -6.171875 C 7.421875 -6.816406 7.359375 -7.316406 7.234375 -7.671875 C 7.109375 -8.023438 6.90625 -8.28125 6.625 -8.4375 C 6.351562 -8.59375 5.953125 -8.671875 5.421875 -8.671875 C 4.640625 -8.671875 4.023438 -8.398438 3.578125 -7.859375 C 3.128906 -7.328125 2.90625 -6.585938 2.90625 -5.640625 L 2.90625 0 L 1.28125 0 L 1.28125 -7.65625 C 1.28125 -8.789062 1.257812 -9.484375 1.21875 -9.734375 L 2.75 -9.734375 C 2.757812 -9.710938 2.765625 -9.632812 2.765625 -9.5 C 2.773438 -9.363281 2.785156 -9.207031 2.796875 -9.03125 C 2.804688 -8.863281 2.816406 -8.546875 2.828125 -8.078125 L 2.859375 -8.078125 C 3.222656 -8.742188 3.648438 -9.21875 4.140625 -9.5 C 4.628906 -9.78125 5.238281 -9.921875 5.96875 -9.921875 C 7.039062 -9.921875 7.820312 -9.65625 8.3125 -9.125 C 8.8125 -8.59375 9.0625 -7.710938 9.0625 -6.484375 L 9.0625 0 Z M 7.421875 0 "/></g></g></g><g fill="#ffffff" fill-opacity="1"><g transform="translate(154.096449, 127.748179)"><g><path d="M 9.484375 -4.875 C 9.484375 -3.175781 9.109375 -1.90625 8.359375 -1.0625 C 7.609375 -0.226562 6.519531 0.1875 5.09375 0.1875 C 3.664062 0.1875 2.585938 -0.242188 1.859375 -1.109375 C 1.140625 -1.984375 0.78125 -3.238281 0.78125 -4.875 C 0.78125 -8.238281 2.234375 -9.921875 5.140625 -9.921875 C 6.628906 -9.921875 7.722656 -9.507812 8.421875 -8.6875 C 9.128906 -7.875 9.484375 -6.601562 9.484375 -4.875 Z M 7.78125 -4.875 C 7.78125 -6.21875 7.578125 -7.191406 7.171875 -7.796875 C 6.773438 -8.410156 6.109375 -8.71875 5.171875 -8.71875 C 4.222656 -8.71875 3.535156 -8.40625 3.109375 -7.78125 C 2.679688 -7.164062 2.46875 -6.195312 2.46875 -4.875 C 2.46875 -3.59375 2.675781 -2.628906 3.09375 -1.984375 C 3.519531 -1.335938 4.175781 -1.015625 5.0625 -1.015625 C 6.039062 -1.015625 6.738281 -1.328125 7.15625 -1.953125 C 7.570312 -2.578125 7.78125 -3.550781 7.78125 -4.875 Z M 7.78125 -4.875 "/></g></g></g><g fill="#ffffff" fill-opacity="1"><g transform="translate(164.344173, 127.748179)"><g><path d="M 1.25 0 L 1.25 -13.359375 L 2.859375 -13.359375 L 2.859375 0 Z M 1.25 0 "/></g></g></g><g fill="#ffffff" fill-opacity="1"><g transform="translate(168.437864, 127.748179)"><g><path d="M 9.484375 -4.875 C 9.484375 -3.175781 9.109375 -1.90625 8.359375 -1.0625 C 7.609375 -0.226562 6.519531 0.1875 5.09375 0.1875 C 3.664062 0.1875 2.585938 -0.242188 1.859375 -1.109375 C 1.140625 -1.984375 0.78125 -3.238281 0.78125 -4.875 C 0.78125 -8.238281 2.234375 -9.921875 5.140625 -9.921875 C 6.628906 -9.921875 7.722656 -9.507812 8.421875 -8.6875 C 9.128906 -7.875 9.484375 -6.601562 9.484375 -4.875 Z M 7.78125 -4.875 C 7.78125 -6.21875 7.578125 -7.191406 7.171875 -7.796875 C 6.773438 -8.410156 6.109375 -8.71875 5.171875 -8.71875 C 4.222656 -8.71875 3.535156 -8.40625 3.109375 -7.78125 C 2.679688 -7.164062 2.46875 -6.195312 2.46875 -4.875 C 2.46875 -3.59375 2.675781 -2.628906 3.09375 -1.984375 C 3.519531 -1.335938 4.175781 -1.015625 5.0625 -1.015625 C 6.039062 -1.015625 6.738281 -1.328125 7.15625 -1.953125 C 7.570312 -2.578125 7.78125 -3.550781 7.78125 -4.875 Z M 7.78125 -4.875 "/></g></g></g><g fill="#ffffff" fill-opacity="1"><g transform="translate(178.685588, 127.748179)"><g><path d="M 4.9375 3.828125 C 3.875 3.828125 3.023438 3.617188 2.390625 3.203125 C 1.765625 2.785156 1.359375 2.191406 1.171875 1.421875 L 2.8125 1.1875 C 2.914062 1.632812 3.148438 1.976562 3.515625 2.21875 C 3.890625 2.46875 4.378906 2.59375 4.984375 2.59375 C 6.597656 2.59375 7.40625 1.644531 7.40625 -0.25 L 7.40625 -1.8125 L 7.375 -1.8125 C 7.070312 -1.1875 6.65625 -0.710938 6.125 -0.390625 C 5.59375 -0.078125 4.96875 0.078125 4.25 0.078125 C 3.050781 0.078125 2.171875 -0.316406 1.609375 -1.109375 C 1.054688 -1.910156 0.78125 -3.160156 0.78125 -4.859375 C 0.78125 -6.578125 1.078125 -7.84375 1.671875 -8.65625 C 2.273438 -9.476562 3.191406 -9.890625 4.421875 -9.890625 C 5.117188 -9.890625 5.71875 -9.734375 6.21875 -9.421875 C 6.726562 -9.109375 7.125 -8.660156 7.40625 -8.078125 L 7.421875 -8.078125 C 7.421875 -8.253906 7.429688 -8.5625 7.453125 -9 C 7.472656 -9.445312 7.5 -9.691406 7.53125 -9.734375 L 9.0625 -9.734375 C 9.03125 -9.410156 9.015625 -8.738281 9.015625 -7.71875 L 9.015625 -0.28125 C 9.015625 2.457031 7.65625 3.828125 4.9375 3.828125 Z M 7.40625 -4.875 C 7.40625 -5.664062 7.296875 -6.347656 7.078125 -6.921875 C 6.859375 -7.492188 6.550781 -7.929688 6.15625 -8.234375 C 5.769531 -8.535156 5.328125 -8.6875 4.828125 -8.6875 C 3.992188 -8.6875 3.390625 -8.382812 3.015625 -7.78125 C 2.640625 -7.1875 2.453125 -6.21875 2.453125 -4.875 C 2.453125 -3.539062 2.628906 -2.582031 2.984375 -2 C 3.335938 -1.414062 3.941406 -1.125 4.796875 -1.125 C 5.304688 -1.125 5.757812 -1.273438 6.15625 -1.578125 C 6.550781 -1.878906 6.859375 -2.304688 7.078125 -2.859375 C 7.296875 -3.421875 7.40625 -4.09375 7.40625 -4.875 Z M 7.40625 -4.875 "/></g></g></g><g fill="#ffffff" fill-opacity="1"><g transform="translate(188.933312, 127.748179)"><g><path d="M 1.71875 3.828125 C 1.269531 3.828125 0.898438 3.796875 0.609375 3.734375 L 0.609375 2.515625 C 0.828125 2.546875 1.078125 2.5625 1.359375 2.5625 C 2.367188 2.5625 3.164062 1.820312 3.75 0.34375 L 3.90625 -0.046875 L 0.046875 -9.734375 L 1.78125 -9.734375 L 3.828125 -4.359375 C 3.859375 -4.273438 3.894531 -4.171875 3.9375 -4.046875 C 3.976562 -3.929688 4.113281 -3.539062 4.34375 -2.875 C 4.570312 -2.207031 4.691406 -1.835938 4.703125 -1.765625 L 5.34375 -3.53125 L 7.46875 -9.734375 L 9.1875 -9.734375 L 5.4375 0 C 5.03125 1.039062 4.65625 1.8125 4.3125 2.3125 C 3.96875 2.820312 3.582031 3.203125 3.15625 3.453125 C 2.726562 3.703125 2.25 3.828125 1.71875 3.828125 Z M 1.71875 3.828125 "/></g></g></g><g fill="#ffffff" fill-opacity="1"><g transform="translate(198.146367, 127.748179)"><g/></g></g><g fill="#ffffff" fill-opacity="1"><g transform="translate(203.265731, 127.748179)"><g><path d="M 10.5625 0 L 8.6875 0 L 6.984375 -6.890625 L 6.65625 -8.40625 C 6.601562 -8.132812 6.519531 -7.742188 6.40625 -7.234375 C 6.289062 -6.734375 5.679688 -4.320312 4.578125 0 L 2.703125 0 L -0.03125 -9.734375 L 1.578125 -9.734375 L 3.21875 -3.125 C 3.257812 -2.976562 3.390625 -2.382812 3.609375 -1.34375 L 3.765625 -2 L 5.796875 -9.734375 L 7.53125 -9.734375 L 9.234375 -3.046875 L 9.65625 -1.34375 L 9.9375 -2.59375 L 11.78125 -9.734375 L 13.359375 -9.734375 Z M 10.5625 0 "/></g></g></g><g fill="#ffffff" fill-opacity="1"><g transform="translate(216.572477, 127.748179)"><g><path d="M 1.234375 -11.8125 L 1.234375 -13.359375 L 2.859375 -13.359375 L 2.859375 -11.8125 Z M 1.234375 0 L 1.234375 -9.734375 L 2.859375 -9.734375 L 2.859375 0 Z M 1.234375 0 "/></g></g></g><g fill="#ffffff" fill-opacity="1"><g transform="translate(220.666168, 127.748179)"><g><path d="M 4.984375 -0.078125 C 4.453125 0.0664062 3.90625 0.140625 3.34375 0.140625 C 2.050781 0.140625 1.40625 -0.59375 1.40625 -2.0625 L 1.40625 -8.5625 L 0.28125 -8.5625 L 0.28125 -9.734375 L 1.46875 -9.734375 L 1.9375 -11.921875 L 3.03125 -11.921875 L 3.03125 -9.734375 L 4.828125 -9.734375 L 4.828125 -8.5625 L 3.03125 -8.5625 L 3.03125 -2.40625 C 3.03125 -1.9375 3.101562 -1.609375 3.25 -1.421875 C 3.40625 -1.234375 3.671875 -1.140625 4.046875 -1.140625 C 4.265625 -1.140625 4.578125 -1.179688 4.984375 -1.265625 Z M 4.984375 -0.078125 "/></g></g></g><g fill="#ffffff" fill-opacity="1"><g transform="translate(225.785531, 127.748179)"><g><path d="M 2.859375 -8.078125 C 3.203125 -8.710938 3.617188 -9.175781 4.109375 -9.46875 C 4.597656 -9.769531 5.21875 -9.921875 5.96875 -9.921875 C 7.019531 -9.921875 7.796875 -9.65625 8.296875 -9.125 C 8.804688 -8.601562 9.0625 -7.722656 9.0625 -6.484375 L 9.0625 0 L 7.421875 0 L 7.421875 -6.171875 C 7.421875 -6.859375 7.359375 -7.367188 7.234375 -7.703125 C 7.109375 -8.035156 6.898438 -8.28125 6.609375 -8.4375 C 6.328125 -8.59375 5.929688 -8.671875 5.421875 -8.671875 C 4.660156 -8.671875 4.050781 -8.40625 3.59375 -7.875 C 3.132812 -7.34375 2.90625 -6.632812 2.90625 -5.75 L 2.90625 0 L 1.28125 0 L 1.28125 -13.359375 L 2.90625 -13.359375 L 2.90625 -9.890625 C 2.90625 -9.515625 2.890625 -9.132812 2.859375 -8.75 C 2.835938 -8.363281 2.828125 -8.140625 2.828125 -8.078125 Z M 2.859375 -8.078125 "/></g></g></g><g fill="#ffffff" fill-opacity="1"><g transform="translate(236.033255, 127.748179)"><g/></g></g><g fill="#ffffff" fill-opacity="1"><g transform="translate(241.152619, 127.748179)"><g><path d="M 11.328125 -8.875 C 11.328125 -7.664062 10.929688 -6.707031 10.140625 -6 C 9.359375 -5.289062 8.296875 -4.9375 6.953125 -4.9375 L 3.234375 -4.9375 L 3.234375 0 L 1.515625 0 L 1.515625 -12.6875 L 6.84375 -12.6875 C 8.269531 -12.6875 9.375 -12.351562 10.15625 -11.6875 C 10.9375 -11.019531 11.328125 -10.082031 11.328125 -8.875 Z M 9.59375 -8.84375 C 9.59375 -10.488281 8.609375 -11.3125 6.640625 -11.3125 L 3.234375 -11.3125 L 3.234375 -6.296875 L 6.71875 -6.296875 C 8.632812 -6.296875 9.59375 -7.144531 9.59375 -8.84375 Z M 9.59375 -8.84375 "/></g></g></g><g fill="#ffffff" fill-opacity="1"><g transform="translate(253.44269, 127.748179)"><g><path d="M 2.828125 -9.734375 L 2.828125 -3.5625 C 2.828125 -2.925781 2.890625 -2.429688 3.015625 -2.078125 C 3.140625 -1.722656 3.335938 -1.46875 3.609375 -1.3125 C 3.890625 -1.15625 4.296875 -1.078125 4.828125 -1.078125 C 5.609375 -1.078125 6.222656 -1.34375 6.671875 -1.875 C 7.128906 -2.40625 7.359375 -3.144531 7.359375 -4.09375 L 7.359375 -9.734375 L 8.96875 -9.734375 L 8.96875 -2.078125 C 8.96875 -0.941406 8.988281 -0.25 9.03125 0 L 7.5 0 C 7.488281 -0.03125 7.476562 -0.109375 7.46875 -0.234375 C 7.46875 -0.367188 7.460938 -0.519531 7.453125 -0.6875 C 7.441406 -0.863281 7.429688 -1.191406 7.421875 -1.671875 L 7.40625 -1.671875 C 7.03125 -0.992188 6.597656 -0.515625 6.109375 -0.234375 C 5.617188 0.046875 5.007812 0.1875 4.28125 0.1875 C 3.21875 0.1875 2.4375 -0.078125 1.9375 -0.609375 C 1.445312 -1.140625 1.203125 -2.019531 1.203125 -3.25 L 1.203125 -9.734375 Z M 2.828125 -9.734375 "/></g></g></g><g fill="#ffffff" fill-opacity="1"><g transform="translate(263.690414, 127.748179)"><g><path d="M 1.28125 0 L 1.28125 -7.46875 C 1.28125 -8.15625 1.257812 -8.910156 1.21875 -9.734375 L 2.75 -9.734375 C 2.800781 -8.628906 2.828125 -7.96875 2.828125 -7.75 L 2.859375 -7.75 C 3.117188 -8.582031 3.414062 -9.148438 3.75 -9.453125 C 4.09375 -9.765625 4.566406 -9.921875 5.171875 -9.921875 C 5.390625 -9.921875 5.609375 -9.890625 5.828125 -9.828125 L 5.828125 -8.34375 C 5.617188 -8.40625 5.332031 -8.4375 4.96875 -8.4375 C 4.300781 -8.4375 3.789062 -8.144531 3.4375 -7.5625 C 3.082031 -6.988281 2.90625 -6.160156 2.90625 -5.078125 L 2.90625 0 Z M 1.28125 0 "/></g></g></g><g fill="#ffffff" fill-opacity="1"><g transform="translate(269.826452, 127.748179)"><g><path d="M 9.484375 -4.921875 C 9.484375 -1.515625 8.285156 0.1875 5.890625 0.1875 C 4.390625 0.1875 3.382812 -0.378906 2.875 -1.515625 L 2.828125 -1.515625 C 2.847656 -1.460938 2.859375 -0.953125 2.859375 0.015625 L 2.859375 3.828125 L 1.25 3.828125 L 1.25 -7.75 C 1.25 -8.75 1.226562 -9.410156 1.1875 -9.734375 L 2.75 -9.734375 C 2.757812 -9.710938 2.769531 -9.628906 2.78125 -9.484375 C 2.789062 -9.335938 2.800781 -9.109375 2.8125 -8.796875 C 2.832031 -8.492188 2.84375 -8.285156 2.84375 -8.171875 L 2.875 -8.171875 C 3.164062 -8.773438 3.546875 -9.210938 4.015625 -9.484375 C 4.492188 -9.765625 5.117188 -9.90625 5.890625 -9.90625 C 7.097656 -9.90625 8 -9.503906 8.59375 -8.703125 C 9.1875 -7.898438 9.484375 -6.640625 9.484375 -4.921875 Z M 7.78125 -4.875 C 7.78125 -6.238281 7.597656 -7.207031 7.234375 -7.78125 C 6.867188 -8.363281 6.285156 -8.65625 5.484375 -8.65625 C 4.835938 -8.65625 4.332031 -8.519531 3.96875 -8.25 C 3.613281 -7.976562 3.335938 -7.554688 3.140625 -6.984375 C 2.953125 -6.410156 2.859375 -5.664062 2.859375 -4.75 C 2.859375 -3.46875 3.0625 -2.523438 3.46875 -1.921875 C 3.882812 -1.316406 4.550781 -1.015625 5.46875 -1.015625 C 6.269531 -1.015625 6.851562 -1.3125 7.21875 -1.90625 C 7.59375 -2.5 7.78125 -3.488281 7.78125 -4.875 Z M 7.78125 -4.875 "/></g></g></g><g fill="#ffffff" fill-opacity="1"><g transform="translate(280.074176, 127.748179)"><g><path d="M 9.484375 -4.875 C 9.484375 -3.175781 9.109375 -1.90625 8.359375 -1.0625 C 7.609375 -0.226562 6.519531 0.1875 5.09375 0.1875 C 3.664062 0.1875 2.585938 -0.242188 1.859375 -1.109375 C 1.140625 -1.984375 0.78125 -3.238281 0.78125 -4.875 C 0.78125 -8.238281 2.234375 -9.921875 5.140625 -9.921875 C 6.628906 -9.921875 7.722656 -9.507812 8.421875 -8.6875 C 9.128906 -7.875 9.484375 -6.601562 9.484375 -4.875 Z M 7.78125 -4.875 C 7.78125 -6.21875 7.578125 -7.191406 7.171875 -7.796875 C 6.773438 -8.410156 6.109375 -8.71875 5.171875 -8.71875 C 4.222656 -8.71875 3.535156 -8.40625 3.109375 -7.78125 C 2.679688 -7.164062 2.46875 -6.195312 2.46875 -4.875 C 2.46875 -3.59375 2.675781 -2.628906 3.09375 -1.984375 C 3.519531 -1.335938 4.175781 -1.015625 5.0625 -1.015625 C 6.039062 -1.015625 6.738281 -1.328125 7.15625 -1.953125 C 7.570312 -2.578125 7.78125 -3.550781 7.78125 -4.875 Z M 7.78125 -4.875 "/></g></g></g><g fill="#ffffff" fill-opacity="1"><g transform="translate(290.3219, 127.748179)"><g><path d="M 8.546875 -2.6875 C 8.546875 -1.769531 8.195312 -1.0625 7.5 -0.5625 C 6.8125 -0.0625 5.84375 0.1875 4.59375 0.1875 C 3.382812 0.1875 2.453125 -0.0078125 1.796875 -0.40625 C 1.140625 -0.8125 0.710938 -1.4375 0.515625 -2.28125 L 1.9375 -2.5625 C 2.082031 -2.039062 2.367188 -1.65625 2.796875 -1.40625 C 3.234375 -1.164062 3.832031 -1.046875 4.59375 -1.046875 C 5.414062 -1.046875 6.019531 -1.171875 6.40625 -1.421875 C 6.789062 -1.679688 6.984375 -2.0625 6.984375 -2.5625 C 6.984375 -2.945312 6.847656 -3.257812 6.578125 -3.5 C 6.316406 -3.738281 5.890625 -3.9375 5.296875 -4.09375 L 4.140625 -4.40625 C 3.210938 -4.644531 2.550781 -4.878906 2.15625 -5.109375 C 1.757812 -5.335938 1.453125 -5.617188 1.234375 -5.953125 C 1.015625 -6.285156 0.90625 -6.691406 0.90625 -7.171875 C 0.90625 -8.054688 1.21875 -8.726562 1.84375 -9.1875 C 2.476562 -9.65625 3.40625 -9.890625 4.625 -9.890625 C 5.695312 -9.890625 6.546875 -9.703125 7.171875 -9.328125 C 7.804688 -8.953125 8.207031 -8.347656 8.375 -7.515625 L 6.921875 -7.328125 C 6.828125 -7.753906 6.582031 -8.082031 6.1875 -8.3125 C 5.800781 -8.550781 5.28125 -8.671875 4.625 -8.671875 C 3.882812 -8.671875 3.335938 -8.554688 2.984375 -8.328125 C 2.640625 -8.109375 2.46875 -7.773438 2.46875 -7.328125 C 2.46875 -7.054688 2.539062 -6.828125 2.6875 -6.640625 C 2.832031 -6.460938 3.046875 -6.3125 3.328125 -6.1875 C 3.609375 -6.0625 4.203125 -5.882812 5.109375 -5.65625 C 5.972656 -5.445312 6.59375 -5.25 6.96875 -5.0625 C 7.34375 -4.882812 7.640625 -4.679688 7.859375 -4.453125 C 8.078125 -4.234375 8.242188 -3.976562 8.359375 -3.6875 C 8.484375 -3.394531 8.546875 -3.0625 8.546875 -2.6875 Z M 8.546875 -2.6875 "/></g></g></g><g fill="#ffffff" fill-opacity="1"><g transform="translate(299.534955, 127.748179)"><g><path d="M 2.484375 -4.53125 C 2.484375 -3.414062 2.710938 -2.550781 3.171875 -1.9375 C 3.640625 -1.332031 4.316406 -1.03125 5.203125 -1.03125 C 5.898438 -1.03125 6.460938 -1.171875 6.890625 -1.453125 C 7.316406 -1.734375 7.601562 -2.09375 7.75 -2.53125 L 9.171875 -2.125 C 8.585938 -0.582031 7.265625 0.1875 5.203125 0.1875 C 3.765625 0.1875 2.664062 -0.238281 1.90625 -1.09375 C 1.15625 -1.957031 0.78125 -3.238281 0.78125 -4.9375 C 0.78125 -6.539062 1.15625 -7.769531 1.90625 -8.625 C 2.664062 -9.488281 3.742188 -9.921875 5.140625 -9.921875 C 8.003906 -9.921875 9.4375 -8.195312 9.4375 -4.75 L 9.4375 -4.53125 Z M 7.765625 -5.765625 C 7.671875 -6.796875 7.40625 -7.546875 6.96875 -8.015625 C 6.539062 -8.484375 5.921875 -8.71875 5.109375 -8.71875 C 4.328125 -8.71875 3.707031 -8.453125 3.25 -7.921875 C 2.789062 -7.398438 2.539062 -6.679688 2.5 -5.765625 Z M 7.765625 -5.765625 "/></g></g></g></svg>