<svg xmlns="http://www.w3.org/2000/svg" xmlns:xlink="http://www.w3.org/1999/xlink" width="500" zoomAndPan="magnify" viewBox="0 0 375 374.999991" height="500" preserveAspectRatio="xMidYMid meet" version="1.0"><defs><g/><clipPath id="270cb36386"><path d="M 277 154 L 303 154 L 303 180 L 277 180 Z M 277 154 " clip-rule="nonzero"/></clipPath><clipPath id="c75b881603"><path d="M 272.339844 158.117188 L 289.960938 141.828125 L 314.398438 168.265625 L 296.773438 184.554688 Z M 272.339844 158.117188 " clip-rule="nonzero"/></clipPath><clipPath id="2c153e2ae4"><path d="M 272.339844 158.117188 L 289.960938 141.828125 L 314.398438 168.265625 L 296.773438 184.554688 Z M 272.339844 158.117188 " clip-rule="nonzero"/></clipPath><clipPath id="752afe94b2"><path d="M 290 142 L 316 142 L 316 168 L 290 168 Z M 290 142 " clip-rule="nonzero"/></clipPath><clipPath id="95955bbc90"><path d="M 285.0625 146.359375 L 302.6875 130.066406 L 327.121094 156.503906 L 309.496094 172.792969 Z M 285.0625 146.359375 " clip-rule="nonzero"/></clipPath><clipPath id="fb7ff7bede"><path d="M 285.0625 146.359375 L 302.6875 130.066406 L 327.121094 156.503906 L 309.496094 172.792969 Z M 285.0625 146.359375 " clip-rule="nonzero"/></clipPath></defs><g fill="#000000" fill-opacity="1"><g transform="translate(59.146172, 215.59002)"><g><path d="M 4.28125 0 L 4.28125 -7.796875 L 22.859375 -7.796875 C 23.765625 -7.796875 24.585938 -8.023438 25.328125 -8.484375 C 26.078125 -8.941406 26.675781 -9.550781 27.125 -10.3125 C 27.582031 -11.070312 27.8125 -11.910156 27.8125 -12.828125 C 27.8125 -13.773438 27.582031 -14.628906 27.125 -15.390625 C 26.675781 -16.148438 26.078125 -16.757812 25.328125 -17.21875 C 24.585938 -17.675781 23.765625 -17.90625 22.859375 -17.90625 L 15.609375 -17.90625 C 13.171875 -17.90625 10.960938 -18.398438 8.984375 -19.390625 C 7.003906 -20.378906 5.425781 -21.8125 4.25 -23.6875 C 3.070312 -25.570312 2.484375 -27.832031 2.484375 -30.46875 C 2.484375 -33.070312 3.039062 -35.332031 4.15625 -37.25 C 5.269531 -39.175781 6.773438 -40.675781 8.671875 -41.75 C 10.566406 -42.820312 12.671875 -43.359375 14.984375 -43.359375 L 33.8125 -43.359375 L 33.8125 -35.546875 L 15.859375 -35.546875 C 15.035156 -35.546875 14.269531 -35.328125 13.5625 -34.890625 C 12.863281 -34.460938 12.316406 -33.894531 11.921875 -33.1875 C 11.523438 -32.488281 11.328125 -31.707031 11.328125 -30.84375 C 11.328125 -29.976562 11.523438 -29.191406 11.921875 -28.484375 C 12.316406 -27.785156 12.863281 -27.226562 13.5625 -26.8125 C 14.269531 -26.40625 15.035156 -26.203125 15.859375 -26.203125 L 23.34375 -26.203125 C 26.03125 -26.203125 28.363281 -25.6875 30.34375 -24.65625 C 32.332031 -23.625 33.875 -22.175781 34.96875 -20.3125 C 36.0625 -18.457031 36.609375 -16.289062 36.609375 -13.8125 C 36.609375 -10.882812 36.039062 -8.382812 34.90625 -6.3125 C 33.769531 -4.25 32.238281 -2.679688 30.3125 -1.609375 C 28.394531 -0.535156 26.28125 0 23.96875 0 Z M 4.28125 0 "/></g></g></g><g fill="#000000" fill-opacity="1"><g transform="translate(97.916624, 215.59002)"><g><path d="M 19.203125 0 C 15.941406 0 13.03125 -0.703125 10.46875 -2.109375 C 7.90625 -3.515625 5.878906 -5.398438 4.390625 -7.765625 C 2.910156 -10.140625 2.171875 -12.816406 2.171875 -15.796875 C 2.171875 -18.765625 2.910156 -21.4375 4.390625 -23.8125 C 5.878906 -26.1875 7.90625 -28.078125 10.46875 -29.484375 C 13.03125 -30.890625 15.941406 -31.59375 19.203125 -31.59375 L 23.171875 -31.59375 L 23.171875 -24.34375 L 19.203125 -24.34375 C 17.460938 -24.34375 15.960938 -23.96875 14.703125 -23.21875 C 13.453125 -22.476562 12.484375 -21.457031 11.796875 -20.15625 C 11.117188 -18.851562 10.78125 -17.398438 10.78125 -15.796875 C 10.78125 -14.179688 11.117188 -12.722656 11.796875 -11.421875 C 12.484375 -10.117188 13.453125 -9.097656 14.703125 -8.359375 C 15.960938 -7.617188 17.460938 -7.25 19.203125 -7.25 L 23.171875 -7.25 L 23.171875 0 Z M 19.203125 0 "/></g></g></g><g fill="#000000" fill-opacity="1"><g transform="translate(122.937813, 215.59002)"><g><path d="M 16.46875 0.75 C 13.582031 0.75 11.066406 0.00390625 8.921875 -1.484375 C 6.773438 -2.972656 5.113281 -4.960938 3.9375 -7.453125 C 2.757812 -9.953125 2.171875 -12.710938 2.171875 -15.734375 C 2.171875 -18.828125 2.835938 -21.632812 4.171875 -24.15625 C 5.515625 -26.675781 7.445312 -28.664062 9.96875 -30.125 C 12.488281 -31.59375 15.503906 -32.328125 19.015625 -32.328125 C 22.566406 -32.328125 25.5625 -31.582031 28 -30.09375 C 30.4375 -28.613281 32.289062 -26.613281 33.5625 -24.09375 C 34.84375 -21.570312 35.484375 -18.785156 35.484375 -15.734375 L 35.484375 0 L 27 0 L 27 -5.265625 L 26.875 -5.265625 C 26.257812 -4.148438 25.488281 -3.132812 24.5625 -2.21875 C 23.632812 -1.3125 22.507812 -0.585938 21.1875 -0.046875 C 19.863281 0.484375 18.289062 0.75 16.46875 0.75 Z M 18.890625 -6.5 C 20.546875 -6.5 21.96875 -6.910156 23.15625 -7.734375 C 24.351562 -8.566406 25.269531 -9.691406 25.90625 -11.109375 C 26.550781 -12.535156 26.875 -14.117188 26.875 -15.859375 C 26.875 -17.585938 26.550781 -19.144531 25.90625 -20.53125 C 25.269531 -21.914062 24.351562 -23.019531 23.15625 -23.84375 C 21.96875 -24.664062 20.546875 -25.078125 18.890625 -25.078125 C 17.191406 -25.078125 15.734375 -24.664062 14.515625 -23.84375 C 13.304688 -23.019531 12.378906 -21.914062 11.734375 -20.53125 C 11.097656 -19.144531 10.78125 -17.585938 10.78125 -15.859375 C 10.78125 -14.117188 11.097656 -12.535156 11.734375 -11.109375 C 12.378906 -9.691406 13.304688 -8.566406 14.515625 -7.734375 C 15.734375 -6.910156 17.191406 -6.5 18.890625 -6.5 Z M 18.890625 -6.5 "/></g></g></g><g fill="#000000" fill-opacity="1"><g transform="translate(162.451467, 215.59002)"><g><path d="M 4.03125 0 L 4.03125 -45.21875 L 12.515625 -45.21875 L 12.515625 0 Z M 4.03125 0 "/></g></g></g><g fill="#000000" fill-opacity="1"><g transform="translate(178.987743, 215.59002)"><g><path d="M 19.9375 0 C 16.351562 0 13.226562 -0.691406 10.5625 -2.078125 C 7.894531 -3.460938 5.828125 -5.347656 4.359375 -7.734375 C 2.898438 -10.128906 2.171875 -12.816406 2.171875 -15.796875 C 2.171875 -19.140625 2.847656 -22.050781 4.203125 -24.53125 C 5.566406 -27.007812 7.425781 -28.925781 9.78125 -30.28125 C 12.132812 -31.644531 14.800781 -32.328125 17.78125 -32.328125 C 21.332031 -32.328125 24.210938 -31.582031 26.421875 -30.09375 C 28.628906 -28.613281 30.25 -26.625 31.28125 -24.125 C 32.3125 -21.625 32.828125 -18.847656 32.828125 -15.796875 C 32.828125 -15.378906 32.804688 -14.890625 32.765625 -14.328125 C 32.722656 -13.773438 32.660156 -13.351562 32.578125 -13.0625 L 11.203125 -13.0625 C 11.535156 -11.789062 12.101562 -10.71875 12.90625 -9.84375 C 13.71875 -8.976562 14.734375 -8.328125 15.953125 -7.890625 C 17.171875 -7.460938 18.539062 -7.25 20.0625 -7.25 L 28.859375 -7.25 L 28.859375 0 Z M 11.15625 -18.765625 L 24.34375 -18.765625 C 24.257812 -19.546875 24.113281 -20.273438 23.90625 -20.953125 C 23.695312 -21.640625 23.40625 -22.25 23.03125 -22.78125 C 22.664062 -23.320312 22.234375 -23.78125 21.734375 -24.15625 C 21.242188 -24.53125 20.664062 -24.816406 20 -25.015625 C 19.34375 -25.222656 18.625 -25.328125 17.84375 -25.328125 C 16.8125 -25.328125 15.890625 -25.140625 15.078125 -24.765625 C 14.273438 -24.398438 13.601562 -23.90625 13.0625 -23.28125 C 12.53125 -22.664062 12.109375 -21.960938 11.796875 -21.171875 C 11.484375 -20.390625 11.269531 -19.585938 11.15625 -18.765625 Z M 11.15625 -18.765625 "/></g></g></g><g fill="#000000" fill-opacity="1"><g transform="translate(213.794443, 215.59002)"><g><path d="M 15.421875 0 C 13.023438 0 10.847656 -0.578125 8.890625 -1.734375 C 6.929688 -2.890625 5.375 -4.445312 4.21875 -6.40625 C 3.0625 -8.375 2.484375 -10.550781 2.484375 -12.9375 C 2.484375 -14.675781 2.851562 -16.304688 3.59375 -17.828125 C 4.332031 -19.359375 5.34375 -20.703125 6.625 -21.859375 C 5.34375 -23.015625 4.332031 -24.359375 3.59375 -25.890625 C 2.851562 -27.421875 2.484375 -29.03125 2.484375 -30.71875 C 2.484375 -33.070312 3.050781 -35.195312 4.1875 -37.09375 C 5.320312 -39 6.847656 -40.519531 8.765625 -41.65625 C 10.679688 -42.789062 12.796875 -43.359375 15.109375 -43.359375 L 32.953125 -43.359375 L 32.953125 -35.546875 L 16.109375 -35.546875 C 15.234375 -35.546875 14.4375 -35.328125 13.71875 -34.890625 C 13 -34.460938 12.421875 -33.882812 11.984375 -33.15625 C 11.546875 -32.4375 11.328125 -31.625 11.328125 -30.71875 C 11.328125 -29.851562 11.546875 -29.054688 11.984375 -28.328125 C 12.421875 -27.609375 13 -27.03125 13.71875 -26.59375 C 14.4375 -26.164062 15.234375 -25.953125 16.109375 -25.953125 L 30.84375 -25.953125 L 30.84375 -18.140625 L 16.46875 -18.140625 C 15.519531 -18.140625 14.65625 -17.898438 13.875 -17.421875 C 13.09375 -16.953125 12.472656 -16.328125 12.015625 -15.546875 C 11.554688 -14.765625 11.328125 -13.894531 11.328125 -12.9375 C 11.328125 -11.988281 11.554688 -11.125 12.015625 -10.34375 C 12.472656 -9.5625 13.09375 -8.941406 13.875 -8.484375 C 14.65625 -8.023438 15.519531 -7.796875 16.46875 -7.796875 L 32.953125 -7.796875 L 32.953125 0 Z M 15.421875 0 "/></g></g></g><g fill="#000000" fill-opacity="1"><g transform="translate(249.220485, 215.59002)"><g><path d="M 18.828125 0.75 C 16.179688 0.75 13.816406 0.328125 11.734375 -0.515625 C 9.648438 -1.367188 7.90625 -2.566406 6.5 -4.109375 C 5.09375 -5.660156 4.019531 -7.476562 3.28125 -9.5625 C 2.539062 -11.65625 2.171875 -13.9375 2.171875 -16.40625 C 2.171875 -19.550781 2.800781 -22.3125 4.0625 -24.6875 C 5.320312 -27.0625 7.097656 -28.925781 9.390625 -30.28125 C 11.679688 -31.644531 14.351562 -32.328125 17.40625 -32.328125 C 18.726562 -32.328125 20 -32.140625 21.21875 -31.765625 C 22.4375 -31.398438 23.539062 -30.863281 24.53125 -30.15625 C 25.519531 -29.457031 26.320312 -28.632812 26.9375 -27.6875 L 27 -27.6875 L 27 -45.21875 L 35.484375 -45.21875 L 35.484375 -16.40625 C 35.484375 -12.9375 34.800781 -9.910156 33.4375 -7.328125 C 32.082031 -4.753906 30.164062 -2.765625 27.6875 -1.359375 C 25.207031 0.046875 22.253906 0.75 18.828125 0.75 Z M 18.828125 -6.5 C 20.523438 -6.5 21.96875 -6.910156 23.15625 -7.734375 C 24.351562 -8.566406 25.269531 -9.679688 25.90625 -11.078125 C 26.550781 -12.484375 26.875 -14.054688 26.875 -15.796875 C 26.875 -17.523438 26.550781 -19.09375 25.90625 -20.5 C 25.269531 -21.90625 24.351562 -23.019531 23.15625 -23.84375 C 21.96875 -24.664062 20.523438 -25.078125 18.828125 -25.078125 C 17.171875 -25.078125 15.734375 -24.664062 14.515625 -23.84375 C 13.304688 -23.019531 12.378906 -21.90625 11.734375 -20.5 C 11.097656 -19.09375 10.78125 -17.523438 10.78125 -15.796875 C 10.78125 -14.054688 11.097656 -12.484375 11.734375 -11.078125 C 12.378906 -9.679688 13.304688 -8.566406 14.515625 -7.734375 C 15.734375 -6.910156 17.171875 -6.5 18.828125 -6.5 Z M 18.828125 -6.5 "/></g></g></g><path fill="#000000" d="M 62.867188 221.078125 L 74.117188 221.078125 L 74.117188 224.828125 L 62.867188 224.828125 M 77.867188 221.078125 L 89.117188 221.078125 L 89.117188 224.828125 L 77.867188 224.828125 M 92.867188 221.078125 L 104.117188 221.078125 L 104.117188 224.828125 L 92.867188 224.828125 M 107.867188 221.078125 L 119.117188 221.078125 L 119.117188 224.828125 L 107.867188 224.828125 M 122.867188 221.078125 L 134.117188 221.078125 L 134.117188 224.828125 L 122.867188 224.828125 M 137.867188 221.078125 L 149.117188 221.078125 L 149.117188 224.828125 L 137.867188 224.828125 M 152.867188 221.078125 L 164.117188 221.078125 L 164.117188 224.828125 L 152.867188 224.828125 M 167.867188 221.078125 L 179.117188 221.078125 L 179.117188 224.828125 L 167.867188 224.828125 M 182.867188 221.078125 L 194.117188 221.078125 L 194.117188 224.828125 L 182.867188 224.828125 M 197.867188 221.078125 L 209.117188 221.078125 L 209.117188 224.828125 L 197.867188 224.828125 " fill-opacity="1" fill-rule="nonzero"/><g fill="#000000" fill-opacity="1"><g transform="translate(59.814142, 241.113836)"><g><path d="M 6.390625 -5.265625 C 6.929688 -5.078125 7.375 -4.765625 7.71875 -4.328125 C 8.0625 -3.898438 8.234375 -3.367188 8.234375 -2.734375 C 8.234375 -2.203125 8.101562 -1.726562 7.84375 -1.3125 C 7.59375 -0.894531 7.253906 -0.570312 6.828125 -0.34375 C 6.398438 -0.113281 5.925781 0 5.40625 0 L 1.265625 0 L 1.265625 -10.375 L 5.03125 -10.375 C 5.5625 -10.375 6.039062 -10.253906 6.46875 -10.015625 C 6.90625 -9.785156 7.253906 -9.460938 7.515625 -9.046875 C 7.773438 -8.628906 7.90625 -8.148438 7.90625 -7.609375 C 7.90625 -7.054688 7.765625 -6.578125 7.484375 -6.171875 C 7.210938 -5.773438 6.847656 -5.472656 6.390625 -5.265625 Z M 6.796875 -7.53125 C 6.796875 -8.03125 6.609375 -8.445312 6.234375 -8.78125 C 5.867188 -9.113281 5.429688 -9.28125 4.921875 -9.28125 L 2.359375 -9.28125 L 2.359375 -5.734375 L 4.921875 -5.734375 C 5.429688 -5.734375 5.867188 -5.90625 6.234375 -6.25 C 6.609375 -6.59375 6.796875 -7.019531 6.796875 -7.53125 Z M 5.265625 -1.109375 C 5.765625 -1.109375 6.195312 -1.269531 6.5625 -1.59375 C 6.9375 -1.925781 7.125 -2.347656 7.125 -2.859375 C 7.125 -3.359375 6.9375 -3.78125 6.5625 -4.125 C 6.195312 -4.476562 5.765625 -4.65625 5.265625 -4.65625 L 2.359375 -4.65625 L 2.359375 -1.109375 Z M 5.265625 -1.109375 "/></g></g></g><g fill="#000000" fill-opacity="1"><g transform="translate(68.861989, 241.113836)"><g><path d="M 5.703125 -6.921875 L 6.921875 -6.921875 L 3.953125 0.515625 L 2.46875 4.15625 L 1.328125 4.15625 L 3 0.046875 L 0.15625 -6.921875 L 1.34375 -6.921875 L 3.5625 -1.25 Z M 5.703125 -6.921875 "/></g></g></g><g fill="#000000" fill-opacity="1"><g transform="translate(75.937642, 241.113836)"><g/></g></g><g fill="#000000" fill-opacity="1"><g transform="translate(80.106919, 241.113836)"><g><path d="M 4.984375 -10.375 C 5.523438 -10.375 6.007812 -10.242188 6.4375 -9.984375 C 6.875 -9.734375 7.222656 -9.382812 7.484375 -8.9375 C 7.742188 -8.5 7.875 -8.019531 7.875 -7.5 C 7.875 -6.96875 7.742188 -6.476562 7.484375 -6.03125 C 7.222656 -5.59375 6.875 -5.25 6.4375 -5 C 6.007812 -4.75 5.523438 -4.625 4.984375 -4.625 L 2.375 -4.625 L 2.375 0 L 1.265625 0 L 1.265625 -10.375 Z M 4.875 -5.671875 C 5.394531 -5.671875 5.835938 -5.828125 6.203125 -6.140625 C 6.578125 -6.460938 6.765625 -6.90625 6.765625 -7.46875 C 6.765625 -8.03125 6.578125 -8.476562 6.203125 -8.8125 C 5.835938 -9.144531 5.394531 -9.3125 4.875 -9.3125 L 2.375 -9.3125 L 2.375 -5.671875 Z M 4.875 -5.671875 "/></g></g></g><g fill="#000000" fill-opacity="1"><g transform="translate(88.272472, 241.113836)"><g><path d="M 3.875 -7.0625 C 4.363281 -7.0625 4.804688 -6.941406 5.203125 -6.703125 C 5.597656 -6.460938 5.910156 -6.144531 6.140625 -5.75 C 6.367188 -5.363281 6.484375 -4.925781 6.484375 -4.4375 L 6.484375 0 L 5.4375 0 L 5.4375 -4.4375 C 5.4375 -4.875 5.28125 -5.238281 4.96875 -5.53125 C 4.664062 -5.832031 4.300781 -5.984375 3.875 -5.984375 C 3.445312 -5.984375 3.082031 -5.832031 2.78125 -5.53125 C 2.488281 -5.238281 2.34375 -4.875 2.34375 -4.4375 L 2.34375 0 L 1.265625 0 L 1.265625 -12.734375 L 2.34375 -12.734375 L 2.34375 -6.5625 C 2.5625 -6.71875 2.796875 -6.835938 3.046875 -6.921875 C 3.304688 -7.015625 3.582031 -7.0625 3.875 -7.0625 Z M 3.875 -7.0625 "/></g></g></g><g fill="#000000" fill-opacity="1"><g transform="translate(95.936328, 241.113836)"><g><path d="M 1.9375 -8.21875 C 1.726562 -8.21875 1.546875 -8.289062 1.390625 -8.4375 C 1.242188 -8.582031 1.171875 -8.753906 1.171875 -8.953125 C 1.171875 -9.171875 1.242188 -9.347656 1.390625 -9.484375 C 1.546875 -9.617188 1.726562 -9.6875 1.9375 -9.6875 C 2.132812 -9.6875 2.304688 -9.617188 2.453125 -9.484375 C 2.609375 -9.347656 2.6875 -9.171875 2.6875 -8.953125 C 2.6875 -8.753906 2.609375 -8.582031 2.453125 -8.4375 C 2.304688 -8.289062 2.132812 -8.21875 1.9375 -8.21875 Z M 1.40625 0 L 1.40625 -6.921875 L 2.46875 -6.921875 L 2.46875 0 Z M 1.40625 0 "/></g></g></g><g fill="#000000" fill-opacity="1"><g transform="translate(99.7942, 241.113836)"><g><path d="M 1.265625 0 L 1.265625 -12.734375 L 2.34375 -12.734375 L 2.34375 0 Z M 1.265625 0 "/></g></g></g><g fill="#000000" fill-opacity="1"><g transform="translate(103.392577, 241.113836)"><g><path d="M 8.6875 -0.90625 L 9.125 -0.90625 L 9.125 0 C 8.96875 0.09375 8.789062 0.140625 8.59375 0.140625 C 8.195312 0.140625 7.863281 0.03125 7.59375 -0.1875 C 7.320312 -0.40625 7.128906 -0.695312 7.015625 -1.0625 C 6.691406 -0.695312 6.300781 -0.40625 5.84375 -0.1875 C 5.382812 0.03125 4.894531 0.140625 4.375 0.140625 C 3.71875 0.140625 3.113281 -0.0195312 2.5625 -0.34375 C 2.019531 -0.664062 1.585938 -1.097656 1.265625 -1.640625 C 0.941406 -2.191406 0.78125 -2.796875 0.78125 -3.453125 C 0.78125 -4.128906 0.941406 -4.738281 1.265625 -5.28125 C 1.585938 -5.820312 2.019531 -6.253906 2.5625 -6.578125 C 3.113281 -6.898438 3.71875 -7.0625 4.375 -7.0625 C 4.875 -7.0625 5.335938 -6.96875 5.765625 -6.78125 C 6.203125 -6.59375 6.582031 -6.335938 6.90625 -6.015625 L 6.90625 -6.921875 L 7.984375 -6.921875 L 7.984375 -1.796875 C 7.984375 -1.472656 8.050781 -1.242188 8.1875 -1.109375 C 8.332031 -0.972656 8.5 -0.90625 8.6875 -0.90625 Z M 4.375 -0.9375 C 4.832031 -0.9375 5.253906 -1.046875 5.640625 -1.265625 C 6.023438 -1.492188 6.332031 -1.800781 6.5625 -2.1875 C 6.789062 -2.570312 6.90625 -2.992188 6.90625 -3.453125 C 6.90625 -3.929688 6.789062 -4.359375 6.5625 -4.734375 C 6.332031 -5.117188 6.023438 -5.421875 5.640625 -5.640625 C 5.253906 -5.867188 4.832031 -5.984375 4.375 -5.984375 C 3.914062 -5.984375 3.492188 -5.867188 3.109375 -5.640625 C 2.722656 -5.421875 2.414062 -5.117188 2.1875 -4.734375 C 1.96875 -4.359375 1.859375 -3.929688 1.859375 -3.453125 C 1.859375 -2.992188 1.96875 -2.570312 2.1875 -2.1875 C 2.414062 -1.800781 2.722656 -1.492188 3.109375 -1.265625 C 3.492188 -1.046875 3.914062 -0.9375 4.375 -0.9375 Z M 4.375 -0.9375 "/></g></g></g><g fill="#000000" fill-opacity="1"><g transform="translate(112.717222, 241.113836)"><g><path d="M 4.015625 -7.0625 C 4.460938 -7.0625 4.878906 -6.941406 5.265625 -6.703125 C 5.648438 -6.460938 5.960938 -6.144531 6.203125 -5.75 C 6.453125 -5.351562 6.578125 -4.90625 6.578125 -4.40625 L 6.578125 0 L 5.5 0 L 5.5 -4.40625 C 5.5 -4.84375 5.34375 -5.210938 5.03125 -5.515625 C 4.726562 -5.828125 4.359375 -5.984375 3.921875 -5.984375 C 3.484375 -5.984375 3.109375 -5.828125 2.796875 -5.515625 C 2.492188 -5.210938 2.34375 -4.84375 2.34375 -4.40625 L 2.34375 0 L 1.265625 0 L 1.265625 -6.921875 L 2.34375 -6.921875 L 2.34375 -6.375 C 2.570312 -6.59375 2.828125 -6.757812 3.109375 -6.875 C 3.390625 -7 3.691406 -7.0625 4.015625 -7.0625 Z M 4.015625 -7.0625 "/></g></g></g><g fill="#000000" fill-opacity="1"><g transform="translate(120.467573, 241.113836)"><g><path d="M 4.453125 -5.890625 L 2.59375 -5.890625 L 2.59375 -1.953125 C 2.59375 -1.628906 2.695312 -1.375 2.90625 -1.1875 C 3.113281 -1 3.359375 -0.90625 3.640625 -0.90625 L 4.4375 -0.90625 L 4.4375 -0.09375 C 4.34375 -0.03125 4.207031 0.0195312 4.03125 0.0625 C 3.851562 0.113281 3.679688 0.140625 3.515625 0.140625 C 3.148438 0.140625 2.816406 0.0546875 2.515625 -0.109375 C 2.222656 -0.285156 1.984375 -0.523438 1.796875 -0.828125 C 1.609375 -1.128906 1.515625 -1.457031 1.515625 -1.8125 L 1.515625 -5.890625 L 0.359375 -5.890625 L 0.359375 -6.921875 L 1.515625 -6.921875 L 1.515625 -9.9375 L 2.59375 -9.9375 L 2.59375 -6.921875 L 4.453125 -6.921875 Z M 4.453125 -5.890625 "/></g></g></g><g fill="#000000" fill-opacity="1"><g transform="translate(125.484537, 241.113836)"><g><path d="M 3.875 -7.0625 C 4.363281 -7.0625 4.804688 -6.941406 5.203125 -6.703125 C 5.597656 -6.460938 5.910156 -6.144531 6.140625 -5.75 C 6.367188 -5.363281 6.484375 -4.925781 6.484375 -4.4375 L 6.484375 0 L 5.4375 0 L 5.4375 -4.4375 C 5.4375 -4.875 5.28125 -5.238281 4.96875 -5.53125 C 4.664062 -5.832031 4.300781 -5.984375 3.875 -5.984375 C 3.445312 -5.984375 3.082031 -5.832031 2.78125 -5.53125 C 2.488281 -5.238281 2.34375 -4.875 2.34375 -4.4375 L 2.34375 0 L 1.265625 0 L 1.265625 -12.734375 L 2.34375 -12.734375 L 2.34375 -6.5625 C 2.5625 -6.71875 2.796875 -6.835938 3.046875 -6.921875 C 3.304688 -7.015625 3.582031 -7.0625 3.875 -7.0625 Z M 3.875 -7.0625 "/></g></g></g><g fill="#000000" fill-opacity="1"><g transform="translate(133.148393, 241.113836)"><g><path d="M 4.640625 -7.0625 C 4.847656 -7.0625 5.023438 -7.046875 5.171875 -7.015625 L 5.171875 -5.921875 C 5.035156 -5.960938 4.859375 -5.984375 4.640625 -5.984375 C 4.222656 -5.984375 3.835938 -5.882812 3.484375 -5.6875 C 3.128906 -5.5 2.847656 -5.234375 2.640625 -4.890625 C 2.441406 -4.554688 2.34375 -4.175781 2.34375 -3.75 L 2.34375 0 L 1.265625 0 L 1.265625 -6.921875 L 2.34375 -6.921875 L 2.34375 -5.9375 C 2.601562 -6.28125 2.925781 -6.550781 3.3125 -6.75 C 3.695312 -6.957031 4.140625 -7.0625 4.640625 -7.0625 Z M 4.640625 -7.0625 "/></g></g></g><g fill="#000000" fill-opacity="1"><g transform="translate(138.407559, 241.113836)"><g><path d="M 4.375 0.140625 C 3.71875 0.140625 3.113281 -0.0195312 2.5625 -0.34375 C 2.019531 -0.664062 1.585938 -1.097656 1.265625 -1.640625 C 0.941406 -2.191406 0.78125 -2.796875 0.78125 -3.453125 C 0.78125 -4.128906 0.941406 -4.738281 1.265625 -5.28125 C 1.585938 -5.820312 2.019531 -6.253906 2.5625 -6.578125 C 3.113281 -6.898438 3.71875 -7.0625 4.375 -7.0625 C 5.039062 -7.0625 5.644531 -6.898438 6.1875 -6.578125 C 6.738281 -6.253906 7.175781 -5.820312 7.5 -5.28125 C 7.820312 -4.738281 7.984375 -4.128906 7.984375 -3.453125 C 7.984375 -2.796875 7.820312 -2.191406 7.5 -1.640625 C 7.175781 -1.097656 6.738281 -0.664062 6.1875 -0.34375 C 5.644531 -0.0195312 5.039062 0.140625 4.375 0.140625 Z M 4.375 -0.9375 C 4.832031 -0.9375 5.253906 -1.046875 5.640625 -1.265625 C 6.023438 -1.492188 6.332031 -1.800781 6.5625 -2.1875 C 6.789062 -2.570312 6.90625 -2.992188 6.90625 -3.453125 C 6.90625 -3.929688 6.789062 -4.359375 6.5625 -4.734375 C 6.332031 -5.117188 6.023438 -5.421875 5.640625 -5.640625 C 5.253906 -5.867188 4.832031 -5.984375 4.375 -5.984375 C 3.914062 -5.984375 3.492188 -5.867188 3.109375 -5.640625 C 2.722656 -5.421875 2.414062 -5.117188 2.1875 -4.734375 C 1.96875 -4.359375 1.859375 -3.929688 1.859375 -3.453125 C 1.859375 -2.992188 1.96875 -2.570312 2.1875 -2.1875 C 2.414062 -1.800781 2.722656 -1.492188 3.109375 -1.265625 C 3.492188 -1.046875 3.914062 -0.9375 4.375 -0.9375 Z M 4.375 -0.9375 "/></g></g></g><g fill="#000000" fill-opacity="1"><g transform="translate(147.161304, 241.113836)"><g><path d="M 2.96875 0.140625 C 2.414062 0.140625 1.910156 -0.00390625 1.453125 -0.296875 C 0.992188 -0.597656 0.703125 -0.953125 0.578125 -1.359375 L 1.609375 -1.78125 C 1.671875 -1.53125 1.832031 -1.320312 2.09375 -1.15625 C 2.351562 -1 2.644531 -0.921875 2.96875 -0.921875 C 3.28125 -0.921875 3.550781 -1.003906 3.78125 -1.171875 C 4.007812 -1.335938 4.125 -1.570312 4.125 -1.875 C 4.125 -2.144531 4.007812 -2.351562 3.78125 -2.5 C 3.5625 -2.65625 3.25 -2.8125 2.84375 -2.96875 C 2.226562 -3.207031 1.742188 -3.484375 1.390625 -3.796875 C 1.046875 -4.117188 0.875 -4.550781 0.875 -5.09375 C 0.875 -5.519531 0.96875 -5.875 1.15625 -6.15625 C 1.351562 -6.445312 1.609375 -6.671875 1.921875 -6.828125 C 2.234375 -6.984375 2.554688 -7.0625 2.890625 -7.0625 C 3.328125 -7.0625 3.738281 -6.945312 4.125 -6.71875 C 4.519531 -6.5 4.785156 -6.234375 4.921875 -5.921875 L 3.984375 -5.4375 C 3.890625 -5.613281 3.75 -5.75 3.5625 -5.84375 C 3.375 -5.9375 3.164062 -5.984375 2.9375 -5.984375 C 2.65625 -5.984375 2.421875 -5.914062 2.234375 -5.78125 C 2.054688 -5.644531 1.96875 -5.425781 1.96875 -5.125 C 1.96875 -4.820312 2.070312 -4.597656 2.28125 -4.453125 C 2.5 -4.304688 2.820312 -4.144531 3.25 -3.96875 C 3.550781 -3.851562 3.851562 -3.707031 4.15625 -3.53125 C 4.457031 -3.363281 4.703125 -3.144531 4.890625 -2.875 C 5.085938 -2.613281 5.1875 -2.28125 5.1875 -1.875 C 5.1875 -1.269531 4.96875 -0.78125 4.53125 -0.40625 C 4.101562 -0.0390625 3.582031 0.140625 2.96875 0.140625 Z M 2.96875 0.140625 "/></g></g></g><g fill="#000000" fill-opacity="1"><g transform="translate(152.887573, 241.113836)"><g><path d="M 4.375 0.140625 C 3.71875 0.140625 3.113281 -0.0195312 2.5625 -0.34375 C 2.019531 -0.664062 1.585938 -1.097656 1.265625 -1.640625 C 0.941406 -2.191406 0.78125 -2.796875 0.78125 -3.453125 C 0.78125 -4.128906 0.941406 -4.738281 1.265625 -5.28125 C 1.585938 -5.820312 2.019531 -6.253906 2.5625 -6.578125 C 3.113281 -6.898438 3.71875 -7.0625 4.375 -7.0625 C 5.039062 -7.0625 5.644531 -6.898438 6.1875 -6.578125 C 6.738281 -6.253906 7.175781 -5.820312 7.5 -5.28125 C 7.820312 -4.738281 7.984375 -4.128906 7.984375 -3.453125 C 7.984375 -2.796875 7.820312 -2.191406 7.5 -1.640625 C 7.175781 -1.097656 6.738281 -0.664062 6.1875 -0.34375 C 5.644531 -0.0195312 5.039062 0.140625 4.375 0.140625 Z M 4.375 -0.9375 C 4.832031 -0.9375 5.253906 -1.046875 5.640625 -1.265625 C 6.023438 -1.492188 6.332031 -1.800781 6.5625 -2.1875 C 6.789062 -2.570312 6.90625 -2.992188 6.90625 -3.453125 C 6.90625 -3.929688 6.789062 -4.359375 6.5625 -4.734375 C 6.332031 -5.117188 6.023438 -5.421875 5.640625 -5.640625 C 5.253906 -5.867188 4.832031 -5.984375 4.375 -5.984375 C 3.914062 -5.984375 3.492188 -5.867188 3.109375 -5.640625 C 2.722656 -5.421875 2.414062 -5.117188 2.1875 -4.734375 C 1.96875 -4.359375 1.859375 -3.929688 1.859375 -3.453125 C 1.859375 -2.992188 1.96875 -2.570312 2.1875 -2.1875 C 2.414062 -1.800781 2.722656 -1.492188 3.109375 -1.265625 C 3.492188 -1.046875 3.914062 -0.9375 4.375 -0.9375 Z M 4.375 -0.9375 "/></g></g></g><g fill="#000000" fill-opacity="1"><g transform="translate(161.641318, 241.113836)"><g><path d="M 4.578125 -6.921875 L 4.578125 -5.890625 L 2.734375 -5.890625 L 2.734375 0 L 1.65625 0 L 1.65625 -5.890625 L 0.5 -5.890625 L 0.5 -6.921875 L 1.65625 -6.921875 L 1.65625 -10.78125 C 1.65625 -11.144531 1.75 -11.472656 1.9375 -11.765625 C 2.125 -12.066406 2.363281 -12.300781 2.65625 -12.46875 C 2.957031 -12.644531 3.289062 -12.734375 3.65625 -12.734375 C 3.820312 -12.734375 3.992188 -12.707031 4.171875 -12.65625 C 4.347656 -12.613281 4.476562 -12.566406 4.5625 -12.515625 L 4.5625 -11.6875 L 3.765625 -11.703125 C 3.492188 -11.703125 3.253906 -11.601562 3.046875 -11.40625 C 2.835938 -11.21875 2.734375 -10.960938 2.734375 -10.640625 L 2.734375 -6.921875 Z M 4.578125 -6.921875 "/></g></g></g><g fill="#000000" fill-opacity="1"><g transform="translate(166.416091, 241.113836)"><g><path d="M 4.453125 -5.890625 L 2.59375 -5.890625 L 2.59375 -1.953125 C 2.59375 -1.628906 2.695312 -1.375 2.90625 -1.1875 C 3.113281 -1 3.359375 -0.90625 3.640625 -0.90625 L 4.4375 -0.90625 L 4.4375 -0.09375 C 4.34375 -0.03125 4.207031 0.0195312 4.03125 0.0625 C 3.851562 0.113281 3.679688 0.140625 3.515625 0.140625 C 3.148438 0.140625 2.816406 0.0546875 2.515625 -0.109375 C 2.222656 -0.285156 1.984375 -0.523438 1.796875 -0.828125 C 1.609375 -1.128906 1.515625 -1.457031 1.515625 -1.8125 L 1.515625 -5.890625 L 0.359375 -5.890625 L 0.359375 -6.921875 L 1.515625 -6.921875 L 1.515625 -9.9375 L 2.59375 -9.9375 L 2.59375 -6.921875 L 4.453125 -6.921875 Z M 4.453125 -5.890625 "/></g></g></g><g clip-path="url(#270cb36386)"><g clip-path="url(#c75b881603)"><g clip-path="url(#2c153e2ae4)"><path fill="#ff6c37" d="M 302.398438 155.179688 L 280.902344 154.226562 C 276.75 154.042969 276.046875 162.128906 280.96875 162.261719 L 294.34375 162.625 L 293.320312 176.082031 C 293.011719 180.183594 301.003906 180.613281 301.230469 176.449219 Z M 302.398438 155.179688 " fill-opacity="1" fill-rule="nonzero"/></g></g></g><g clip-path="url(#752afe94b2)"><g clip-path="url(#95955bbc90)"><g clip-path="url(#fb7ff7bede)"><path fill="#ff6c37" d="M 315.121094 143.421875 L 293.625 142.464844 C 289.472656 142.28125 288.773438 150.367188 293.691406 150.5 L 307.066406 150.863281 L 306.046875 164.324219 C 305.734375 168.421875 313.726562 168.855469 313.957031 164.6875 Z M 315.121094 143.421875 " fill-opacity="1" fill-rule="nonzero"/></g></g></g></svg>