<svg xmlns="http://www.w3.org/2000/svg" xmlns:xlink="http://www.w3.org/1999/xlink" width="500" zoomAndPan="magnify" viewBox="0 0 375 374.999991" height="500" preserveAspectRatio="xMidYMid meet" version="1.0"><defs><clipPath id="79ab88f913"><path d="M 19.566406 40.636719 L 223 40.636719 L 223 334 L 19.566406 334 Z M 19.566406 40.636719 " clip-rule="nonzero"/></clipPath><clipPath id="5fa24916b0"><path d="M 83 40.636719 L 291 40.636719 L 291 334.636719 L 83 334.636719 Z M 83 40.636719 " clip-rule="nonzero"/></clipPath><clipPath id="d8fc1eb20c"><path d="M 148 40.636719 L 355.566406 40.636719 L 355.566406 334.636719 L 148 334.636719 Z M 148 40.636719 " clip-rule="nonzero"/></clipPath></defs><g clip-path="url(#79ab88f913)"><path fill="#8400ba" d="M 19.800781 40.984375 L 19.566406 333.890625 L 222.964844 187.726562 Z M 19.800781 40.984375 " fill-opacity="1" fill-rule="nonzero"/></g><g clip-path="url(#5fa24916b0)"><path fill="#8400ba" d="M 88.179688 45.28125 L 285.421875 187.726562 L 88.0625 329.476562 L 88.179688 45.28125 M 88.179688 40.636719 C 87.484375 40.636719 86.785156 40.753906 86.089844 41.101562 C 84.582031 41.914062 83.535156 43.539062 83.535156 45.28125 L 83.417969 329.476562 C 83.417969 331.21875 84.347656 332.84375 85.972656 333.65625 C 86.671875 334.003906 87.367188 334.121094 88.0625 334.121094 C 88.992188 334.121094 89.921875 333.773438 90.734375 333.191406 L 288.09375 191.441406 C 289.253906 190.511719 290.066406 189.121094 290.066406 187.726562 C 290.066406 186.21875 289.371094 184.824219 288.09375 184.011719 L 90.964844 41.566406 C 90.152344 40.984375 89.222656 40.636719 88.179688 40.636719 Z M 88.179688 40.636719 " fill-opacity="1" fill-rule="nonzero"/></g><g clip-path="url(#d8fc1eb20c)"><path fill="#8400ba" d="M 153.65625 45.511719 L 350.785156 187.960938 L 153.425781 329.710938 L 153.65625 45.511719 M 153.65625 40.867188 C 152.960938 40.867188 152.261719 40.984375 151.566406 41.332031 C 150.058594 42.144531 149.011719 43.769531 149.011719 45.511719 L 148.78125 329.710938 C 148.78125 331.453125 149.707031 333.078125 151.335938 333.890625 C 152.03125 334.238281 152.726562 334.355469 153.425781 334.355469 C 154.351562 334.355469 155.28125 334.003906 156.09375 333.425781 L 353.453125 191.675781 C 354.613281 190.746094 355.425781 189.351562 355.425781 187.960938 C 355.425781 186.449219 354.730469 185.058594 353.453125 184.246094 L 156.441406 41.796875 C 155.628906 41.214844 154.585938 40.867188 153.65625 40.867188 Z M 153.65625 40.867188 " fill-opacity="1" fill-rule="nonzero"/></g></svg>